<?xml version="1.0" encoding="utf-8"?>
<!-- Generator: Adobe Illustrator 15.1.0, SVG Export Plug-In . SVG Version: 6.00 Build 0)  -->
<!DOCTYPE svg PUBLIC "-//W3C//DTD SVG 1.1//EN" "http://www.w3.org/Graphics/SVG/1.1/DTD/svg11.dtd">
<svg version="1.1" id="Layer_1" xmlns="http://www.w3.org/2000/svg" xmlns:xlink="http://www.w3.org/1999/xlink" x="0px" y="0px"
	 width="1078.34px" height="341.215px" viewBox="0 0 1078.34 341.215" enable-background="new 0 0 1078.34 341.215"
	 xml:space="preserve">
<g>
	<g>
		<path fill="#F5FE07" d="M1080.849,426.093"/>
	</g>
	<path fill="#F5FE07" d="M927.036,12.316c-2.34,4.871,0,40.871,0,60.871s-5.148,118.795,1.182,119.881
		c6.329,1.086,45.5,7.383,60.822,14.418s66.032,28.553,68.011,27.793c1.993-25.316-53.542-92.316-52.227-112.159
		c0.161-2.434,44.563-61.337,54.22-66.468c-5.682-7.798-58.348-26.799-73.015-32.465S937.708,7.111,927.036,12.316z"/>
	<path fill="#F5FE07" d="M910.771,47.189c1.591-6.667-110.41-27.612-265.077,24.86c-104.666,35.807-262.563,67.59-300.574,73.026
		c-38.013,5.436-165.707,18.114-175.232,10.78c-4.193,30,3.525,89.334,0,106c-3.525,16.666-3.025,69.714,5.148,70.594
		c8.176,0.88,140.814,13.188,376.732-57.369c199.07-70.784,359-50.559,359-57.225C910.771,211.188,910.771,47.189,910.771,47.189z"
		/>
	<path fill="#F5FE07" d="M152.589,294.338c2.34-4.871,0-40.871,0-60.871s5.148-118.796-1.182-119.882
		c-6.33-1.086-45.501-7.382-60.823-14.417c-15.322-7.035-66.031-28.553-68.01-27.794c-5.065,20.257,57.602,103.923,52.227,112.16
		c-1.483,1.937-44.568,61.337-54.22,66.468c5.681,7.798,58.348,26.799,73.015,32.465
		C108.262,288.133,141.916,299.543,152.589,294.338z"/>
</g>
<g opacity="0.15" enable-background="new    ">
	<g>
		<g>
			<g>
				<g>
					<defs>
						<rect id="SVGID_1_" x="542.875" y="-105.393" width="636.884" height="552"/>
					</defs>
					<clipPath id="SVGID_2_">
						<use xlink:href="#SVGID_1_"  overflow="visible"/>
					</clipPath>
					<g clip-path="url(#SVGID_2_)">
						<g>
							<path fill="#F5FE07" d="M1080.925,426.103"/>
						</g>
						<path d="M927.112,12.326c-2.341,4.871,0,40.871,0,60.871s-5.148,118.796,1.182,119.882c6.329,1.086,45.5,7.382,60.822,14.417
							s66.032,28.553,68.011,27.794c1.993-25.317-53.542-92.317-52.227-112.16c0.161-2.434,44.563-61.337,54.22-66.468
							c-5.682-7.798-58.348-26.799-73.015-32.465C971.438,18.531,937.784,7.121,927.112,12.326z"/>
						<path d="M910.849,47.199c1.594-6.667-110.411-27.612-265.077,24.86c-104.666,35.807-262.562,67.59-300.575,73.026
							c-38.013,5.436-165.707,18.114-175.232,10.78c-4.193,30,3.525,89.334,0,106s-3.025,69.714,5.148,70.594
							c8.176,0.88,140.814,13.189,376.736-57.369c199.07-70.783,359-50.558,359-57.225
							C910.849,211.197,910.849,47.199,910.849,47.199z"/>
						<path d="M152.665,294.348c2.34-4.871,0-40.871,0-60.871s5.148-118.792-1.182-119.878s-45.501-7.382-60.823-14.417
							c-15.322-7.035-66.031-28.553-68.01-27.794c-5.065,20.257,57.602,103.925,52.227,112.16
							c-1.483,1.938-44.568,61.337-54.22,66.471c5.681,7.799,58.348,26.799,73.015,32.465
							C108.338,288.143,141.992,299.553,152.665,294.348z"/>
					</g>
				</g>
			</g>
		</g>
	</g>
</g>
<g>
	<path d="M286.537,212.982c5.2-2.272,9.111,0.133,11.464,4.588c1.743,3.344,2.76,7.43,2.974,12.36
		c0.091,2.008-0.306,3.808-1.191,5.397c-0.508,0.988-0.319,1.697,0.681,2.295c3.796,2.237,7.69,7.216,8.654,11.585
		c1.141,4.987,0.326,9.783-2.378,14.193c-1.352,2.205-3.049,3.906-5.167,5.206c-1.086,0.791-2.492,1.259-4.246,1.866
		c-1.844,0.619-2.271,0.861-3.144,0.521c-0.295-0.143-0.487-0.209-0.603-0.377c-0.344-0.504-0.775-1.639-0.775-1.639
		c-0.258-1.894-0.957-7.677-2.016-17.451c-1.06-9.774-1.938-15.533-2.467-17.39c-0.049-0.36-0.324-1.7-0.734-4.032
		c-1.001-4.64-1.124-5.541-1.437-9.172c-0.082-1.275-0.152-2.46-0.12-3.566c0.057-0.928-0.39-1.51-0.603-2.399
		c-0.049-0.36,0.004-0.644,0.135-1.028C285.775,213.453,286.099,213.134,286.537,212.982z M292.591,237.138
		c0.078-0.103,0.246-0.218,0.336-0.23c0.078-0.102,0.078-0.102,0.168-0.114l0.258-0.127c0.168-0.115,0.258-0.127,0.426-0.242
		c0.246-0.217,0.594-0.356,1.164-0.894c0.426-0.242,0.75-0.562,0.983-0.869c1.024-1.242,1.458-2.771,1.393-4.599
		c-0.218-4.287-1.083-7.935-2.572-10.763c-0.865-1.627-1.734-2.61-2.812-3.105c-0.398-0.222-0.681-0.274-1.066-0.406
		c-0.656-0.094-1.201,0.624-1.221,1.82c-0.041,2.394,0.239,5.111,0.526,6.541c0.135,0.992,0.447,2.603,0.96,5.013
		c0.422,2.422,0.71,3.853,0.771,4.303L292.591,237.138z M297.141,240.189c-0.09,0.013-0.451,0.062-1.069,0.238
		c-0.619,0.176-1.16,0.25-1.623,0.222c-0.914,0.033-1.34,0.274-1.168,1.537c0.509,3.053,0.973,7.123,1.458,12.017
		c0.46,4.713,0.94,8.229,1.195,10.767c0.172,1.262,1.07,1.782,2.283,1.249c0.619-0.176,1.135-0.431,1.471-0.66
		c6.68-4.219,8.378-14.646,3.447-20.493c-2.209-2.729-4.079-4.311-5.723-4.913L297.141,240.189z"/>
	<path d="M313.389,211.824c-0.99,0.146-1.53,0.225-1.517,0.314c-0.127,0.387-0.138,0.94-0.122,1.674
		c0.14,2.83,0.836,6.315,1.987,11.021c0.511,2.224,0.813,3.651,0.878,4.102c0.08,0.54,0.225,1.53,0.45,3.061
		c0.095,1.273,0.818,1.812,1.988,1.64c0.9-0.133,1.62-0.238,2.327-0.435c0.99-0.146,1.997,0.442,2.142,1.433
		c0.146,0.991-0.442,1.997-1.433,2.143c-0.707,0.195-1.697,0.341-2.688,0.486c-1.17,0.173-1.708,0.896-1.626,2.079
		c0.947,8.322,1.786,15.28,2.873,20.179c0.315,1.518,0.577,2.675,0.966,3.445c0.013,0.09,0.129,0.257,0.143,0.347
		c0.026,0.18,0.516,0.384,1.533,0.419c1.93-0.008,4.141-0.609,6.726-1.173c1.337-0.288,2.314-0.523,2.944-0.616
		c0.991-0.146,1.92,0.545,2.065,1.535c0.146,0.991-0.546,1.92-1.536,2.065c-0.54,0.079-1.427,0.302-2.674,0.577
		c-1.607,0.328-2.764,0.59-3.395,0.683c-2.944,0.617-5.235,0.678-6.871,0.182c-1.236-0.277-1.858-1.382-2.327-2.692
		c-0.416-0.951-0.794-2.274-1.135-3.972c-1.167-5.439-2.138-13.298-2.741-19.279c-0.347-2.984-0.614-5.428-0.828-7.512
		c-0.201-1.994-0.399-3.345-0.505-4.064c-0.053-0.36-0.328-1.607-0.826-3.741c-1.178-4.886-1.94-8.82-2.093-11.741
		c-0.008-1.93,0.087-3.783,1.319-4.792c0.32-0.323,0.847-0.492,1.554-0.688l5.852-0.86c4.348-0.454,6.702-0.708,7.048-0.852
		c1.067-0.249,1.983,0.353,2.219,1.329c0.169,0.527,0.056,1.004-0.162,1.403c-0.307,0.413-0.731,0.66-1.168,0.815
		c-0.437,0.156-2.971,0.437-7.499,0.918l-3.781,0.556L313.389,211.824z"/>
	<path d="M340.248,233.563c-1.168,0.184-1.699,0.912-1.425,2.066c0.387,1.874,0.74,4.121,1.254,6.804
		c1.442,7.418,2.555,13.322,3.402,18.716c0.156,0.989-0.526,1.925-1.515,2.081c-0.989,0.155-1.925-0.526-2.08-1.516
		c-0.608-3.865-1.545-9.244-2.931-16.304c-2.668-14.042-2.904-14.373-4.127-24.497c-0.583-4.883-1.148-8.478-1.605-10.801
		c-0.169-1.079,0.422-2.001,1.501-2.17c0.989-0.156,1.911,0.436,2.066,1.425c0.5,2.593,1.079,6.278,1.648,11.07
		c0.447,3.431,0.781,6.141,1.078,8.028c0.184,1.169,0.912,1.699,2.081,1.516l8.45-1.328c1.168-0.184,1.699-0.912,1.605-2.095
		c-0.438-2.786-0.659-4.778-0.885-6.217c-0.127-0.809-0.296-1.888-0.418-3.25s-0.306-2.531-0.433-3.34
		c-0.254-1.618-0.815-4.017-1.685-5.446c-0.515-0.932-0.041-2.02,0.801-2.521s1.93-0.027,2.417,0.726
		c1.044,1.954,1.78,4.878,2.063,6.676c0.155,0.989,0.339,2.157,0.475,3.61c0.136,1.452,0.292,2.44,0.376,2.98
		c0.269,1.708,0.688,4.958,1.318,9.557c0.541,4.612,1.002,8.132,1.266,10.394c1.294,8.823,2.615,14.879,3.975,18.258
		c0.425,0.946,0.027,1.93-0.919,2.354c-0.946,0.426-1.93,0.027-2.355-0.919c-1.583-3.62-2.959-10.035-4.311-19.219
		c-0.179-1.722-0.428-3.893-0.809-6.32c-0.108-1.272-0.836-1.803-2.005-1.619L340.248,233.563z"/>
	<path d="M371.933,214.028c4.356,13.847,7.695,27.68,10.032,41.589c0.166,0.987-0.506,1.931-1.493,2.097
		c-0.987,0.165-1.931-0.507-2.096-1.494c-1.432-8.524-3.223-16.989-5.374-25.394c-0.286-1.151-1.004-1.585-2.186-1.479
		c-2.273,0.197-4.532,0.484-6.791,0.772c-1.092,0.091-1.704,0.84-1.613,1.932c0.319,3.545,0.699,8.556,1.291,14.823
		c0.682,6.806,0.971,10.725,0.958,11.741c0.076,1.003-0.805,1.797-1.808,1.873c-1.002,0.075-1.796-0.806-1.872-1.809
		c-0.046-0.822-0.32-4.651-0.913-11.473c-1.366-15.271-2.248-26.011-2.034-34.074c0.188-4.922,0.736-8.797,2.709-10.236
		c3.602-2.727,6.641-0.562,8.456,3.101c0.75,1.72,1.471,3.813,2.147,6.19L371.933,214.028z M363.96,226.439
		c1.794-0.301,3.604-0.513,5.504-0.74c1.271-0.121,1.884-0.87,1.583-2.111c-0.841-2.811-1.683-5.622-2.614-8.418
		c-0.075-0.449-0.827-3.275-1.413-5.114c-0.496-1.302-1.216-2.841-1.935-3.827c-0.479-0.658-1.124-1.195-1.781-0.716
		c-0.404,0.344-0.836,1.063-1.089,2.305c-0.238,1.332-0.49,3.127-0.562,5.446c-0.041,3.052,0.039,6.821,0.27,11.488
		C362.045,226.023,362.689,226.562,363.96,226.439z"/>
	<path d="M398.6,237.976c-0.401-2.239-1.213-6.254-2.436-12.044c-2.429-11.49-3.768-19.478-4.106-27.552
		c-0.087-1.002,0.696-1.789,1.787-1.893c1.001-0.087,1.789,0.696,1.892,1.787c0.29,7.807,1.581,15.525,3.978,26.836
		c1.19,5.611,2.018,9.715,2.468,12.224l1.268,7.075c0.199,1.629,0.424,2.883,0.511,3.884c0.006,0.554-0.019,0.928-0.044,1.303
		c-0.035,0.838-0.207,1.423-0.949,1.926c-0.652,0.487-1.506,0.362-2.108,0.101c-0.105-0.073-0.227-0.236-0.333-0.31
		c-0.106-0.074-0.333-0.311-0.487-0.652c-0.138-0.253-0.292-0.595-0.551-1.011l-1.653-3.032l-3.523-6.764
		c-2.034-3.611-4.276-8.386-6.817-14.31c-1.278-3.007-2.387-5.581-3.31-7.635c-0.631-1.458-2.617-4.8-2.617-4.8
		c0.376,2.613,0.639,4.6,0.88,5.943c0.434,2.418,1.034,6.286,1.802,11.603c0.694,5.422,1.327,9.469,1.792,12.066
		c0.482,2.688,1.319,6.327,2.602,10.904c0.282,1.059-0.184,2.067-1.153,2.333c-1.059,0.282-2.067-0.184-2.333-1.153
		c-0.994-2.965-1.815-6.516-2.553-10.636s-1.468-8.704-2.098-13.769c-0.704-4.958-1.256-8.557-1.642-10.707
		c-0.241-1.343-0.521-3.419-0.839-6.229c-0.376-2.613-0.64-4.6-0.88-5.943l-0.738-4.12c-0.016-0.09-0.016-0.09-0.032-0.179
		c0,0-0.138-0.253-0.292-0.596c-0.266-0.969-0.427-1.864,0.536-2.684c0.4-0.35,0.938-0.445,1.507-0.363
		c1.033,0.093,1.699,0.713,2.177,1.829c0.122,0.163,0.169,0.432,0.218,0.7c0.016,0.09,0.105,0.073,0.122,0.163
		s0.17,0.432,0.567,1.101c0.292,0.595,0.811,1.426,1.377,2.526c0.916,1.5,1.515,2.779,1.96,3.716
		c0.461,1.027,9.118,21.478,12.975,28.552l-1.271-2.453c0.842,1.605,2.684,4.142,2.603,3.694L398.6,237.976z"/>
	<path d="M417.698,204.839c-0.774-4.021-1.933-6.67-3.6-8.11c-1.117-0.989-2.258-1.141-3.512-0.436
		c-3.028,1.602-5.656,7.204-5.047,14.222c1.167,13.769,2.963,26.952,6.476,32.206c2.454,3.605,5.07,4.677,7.146,3.907
		c1.986-0.753,3.45-3.259,3.302-7.4c-0.1-1,0.763-1.814,1.763-1.914c1-0.101,1.814,0.763,1.915,1.763
		c0.21,5.427-2.033,9.657-5.845,11.04c-3.811,1.382-8.204-0.738-11.222-5.347c-4.166-6.24-6.044-20.335-7.177-33.924
		c-0.726-8.107,2.325-15.366,7.036-17.849c5.392-2.799,10.5,1.593,12.34,11.154c0.189,0.983-0.46,1.942-1.443,2.132
		S417.887,205.823,417.698,204.839L417.698,204.839z"/>
	<path d="M428.213,192.059c-0.98,0.203-1.515,0.314-1.497,0.403c-0.104,0.394-0.083,0.946-0.024,1.678
		c0.306,2.818,1.205,6.257,2.629,10.887c0.64,2.191,1.025,3.599,1.118,4.044c0.111,0.534,0.314,1.515,0.628,3.029
		c0.17,1.267,0.923,1.761,2.081,1.521c0.892-0.185,1.604-0.332,2.299-0.569c0.98-0.203,2.019,0.325,2.222,1.305
		c0.203,0.98-0.325,2.02-1.305,2.223c-0.694,0.237-1.674,0.44-2.655,0.644c-1.158,0.24-1.653,0.993-1.501,2.17
		c1.433,8.254,2.677,15.152,4.05,19.979c0.403,1.497,0.732,2.637,1.167,3.383c0.018,0.09,0.145,0.249,0.163,0.339
		c0.037,0.178,0.538,0.353,1.555,0.328c1.927-0.121,4.099-0.851,6.646-1.564c1.318-0.366,2.28-0.659,2.904-0.788
		c0.98-0.203,1.948,0.433,2.152,1.413c0.203,0.979-0.433,1.948-1.413,2.151c-0.535,0.11-1.407,0.385-2.637,0.732
		c-1.585,0.422-2.725,0.751-3.349,0.881c-2.904,0.788-5.187,0.982-6.85,0.584c-1.251-0.206-1.937-1.271-2.481-2.553
		c-0.471-0.925-0.926-2.225-1.366-3.899c-1.484-5.362-2.913-13.151-3.865-19.088c-0.521-2.96-0.931-5.384-1.267-7.452
		c-0.317-1.979-0.595-3.315-0.742-4.028c-0.074-0.356-0.422-1.586-1.043-3.688c-1.462-4.809-2.453-8.692-2.777-11.6
		c-0.121-1.927-0.134-3.783,1.037-4.862c0.301-0.341,0.817-0.541,1.512-0.778l5.792-1.201c4.314-0.708,6.65-1.1,6.988-1.263
		c1.051-0.311,2,0.235,2.293,1.197c0.2,0.517,0.114,0.999-0.079,1.411c-0.283,0.43-0.691,0.701-1.118,0.882
		c-0.427,0.182-2.941,0.61-7.434,1.355l-3.743,0.776L428.213,192.059z"/>
	<path d="M461.796,235.899c0.542,0.347,0.907,0.732,0.955,1.374c0.396,4.758-3.228,5.649-5.84,3.522
		c-2.473-2.344-1.864-5.925,2.835-6.588c0.642-0.048,1.145,0.121,1.509,0.506c0.621,0.702,0.521,1.097,0.521,1.097L461.796,235.899z
		"/>
	<path d="M479.696,221.139c-0.521-2.215-1.549-6.18-3.082-11.896c-3.045-11.343-4.813-19.247-5.586-27.292
		c-0.141-0.996,0.599-1.824,1.683-1.986c0.996-0.141,1.824,0.6,1.986,1.683c0.71,7.779,2.415,15.418,5.418,26.584
		c1.491,5.539,2.54,9.593,3.124,12.072l1.648,6.998c0.287,1.615,0.579,2.855,0.72,3.851c0.037,0.552,0.031,0.928,0.026,1.303
		c0.01,0.839-0.13,1.433-0.844,1.975c-0.625,0.521-1.485,0.443-2.1,0.214c-0.109-0.067-0.24-0.224-0.349-0.291
		c-0.109-0.068-0.349-0.292-0.521-0.626c-0.151-0.244-0.323-0.578-0.604-0.979l-1.814-2.938l-3.883-6.564
		c-2.226-3.496-4.722-8.144-7.579-13.921c-1.439-2.934-2.685-5.445-3.717-7.445c-0.709-1.423-2.872-4.653-2.872-4.653
		c0.516,2.59,0.886,4.56,1.199,5.888c0.563,2.392,1.372,6.222,2.425,11.489c0.986,5.377,1.835,9.384,2.44,11.953
		c0.626,2.657,1.658,6.247,3.186,10.749c0.339,1.042-0.073,2.073-1.026,2.392c-1.042,0.339-2.074-0.072-2.392-1.026
		c-1.152-2.907-2.164-6.408-3.123-10.482c-0.96-4.075-1.935-8.613-2.837-13.636c-0.97-4.914-1.716-8.478-2.216-10.604
		c-0.313-1.329-0.704-3.387-1.174-6.175c-0.516-2.59-0.886-4.559-1.199-5.888l-0.959-4.074c-0.021-0.089-0.021-0.089-0.042-0.178
		c0,0-0.151-0.244-0.323-0.578c-0.318-0.953-0.527-1.839,0.39-2.71c0.38-0.369,0.912-0.495,1.485-0.442
		c1.037,0.036,1.735,0.619,2.272,1.708c0.13,0.156,0.193,0.422,0.256,0.688c0.021,0.088,0.109,0.067,0.13,0.156
		c0.021,0.088,0.193,0.422,0.625,1.067c0.323,0.579,0.886,1.381,1.512,2.449c0.996,1.448,1.663,2.693,2.158,3.605
		c0.516,1,10.264,20.955,14.496,27.812l-1.402-2.381c0.928,1.558,2.903,3.991,2.799,3.548L479.696,221.139z"/>
	<path d="M483.969,179.399c-0.969,0.254-1.497,0.392-1.474,0.479c-0.084,0.398-0.034,0.949,0.062,1.677
		c0.449,2.799,1.522,6.187,3.182,10.737c0.751,2.155,1.208,3.541,1.323,3.981c0.138,0.528,0.391,1.496,0.782,2.993
		c0.234,1.256,1.012,1.711,2.156,1.412c0.88-0.23,1.584-0.415,2.266-0.687c0.968-0.253,2.033,0.221,2.286,1.189
		c0.253,0.969-0.221,2.033-1.19,2.286c-0.681,0.272-1.649,0.525-2.618,0.778c-1.145,0.299-1.6,1.076-1.389,2.244
		c1.853,8.169,3.449,14.994,5.066,19.744c0.479,1.475,0.866,2.596,1.337,3.319c0.023,0.088,0.157,0.241,0.18,0.329
		c0.046,0.176,0.555,0.325,1.57,0.248c1.918-0.219,4.05-1.059,6.557-1.902c1.298-0.433,2.243-0.774,2.859-0.936
		c0.969-0.253,1.968,0.333,2.221,1.301c0.253,0.969-0.332,1.969-1.301,2.222c-0.528,0.138-1.386,0.456-2.595,0.866
		c-1.562,0.502-2.684,0.89-3.3,1.051c-2.859,0.936-5.129,1.246-6.81,0.933c-1.26-0.141-1.999-1.17-2.608-2.422
		c-0.517-0.899-1.039-2.174-1.563-3.824c-1.756-5.278-3.582-12.984-4.836-18.864c-0.671-2.928-1.205-5.328-1.646-7.376
		c-0.418-1.96-0.764-3.281-0.948-3.985c-0.092-0.352-0.502-1.562-1.23-3.629c-1.706-4.727-2.894-8.555-3.366-11.441
		c-0.219-1.918-0.327-3.771,0.786-4.908c0.283-0.356,0.789-0.582,1.47-0.854l5.723-1.496c4.272-0.928,6.584-1.438,6.913-1.618
		c1.034-0.364,2.01,0.133,2.351,1.078c0.226,0.506,0.165,0.992-0.007,1.413c-0.26,0.444-0.654,0.735-1.072,0.938
		c-0.417,0.203-2.905,0.759-7.354,1.733l-3.698,0.967L483.969,179.399z"/>
	<path d="M520.27,169.489c0.286,0.96-0.152,2.039-1.112,2.325c-1.631,0.58-4.073,1.307-7.239,2.154
		c-1.247,0.276-1.563,1.13-1.138,2.237c0.746,1.867,1.43,3.847,2.121,6.489c0.458,1.857,0.795,2.991,0.951,3.515
		c0.701,2.355,1.704,6.045,3.061,11.242c2.601,10.335,4.911,18.097,7.739,24.092c0.373,0.933,0.048,2.074-0.886,2.447
		c-0.934,0.372-2.075,0.047-2.447-0.886c-2.906-6.257-5.294-14.28-7.972-24.877c-1.357-5.197-2.36-8.887-2.983-10.979
		c-0.234-0.785-0.597-2.007-1.055-3.864c-0.467-1.569-0.718-2.729-1.029-3.776c0.701,2.355-1.042-1.589-1.302-2.461
		c-0.337-1.134-1.129-1.563-2.264-1.225c-1.744,0.519-3.314,0.986-4.57,1.55c-1.021,0.398-2.014-0.065-2.412-1.086
		c-0.373-0.934,0.091-1.927,1.025-2.301c2.303-0.875,5.53-1.836,9.743-2.994c4.5-1.149,7.64-2.084,9.445-2.715
		C518.905,168.092,519.985,168.53,520.27,169.489z"/>
	<path d="M537.995,206.745l0.152-4.204c0.458-18.6,1.105-31.764,1.793-39.634c0.009-1.064,1.002-1.803,1.981-1.764
		c1.009,0.125,1.747,1.119,1.593,2.043c-0.833,9.368-1.394,22.502-1.683,39.4c-0.009,1.065-0.067,2.534-0.177,4.406
		c-0.188,3.832-0.246,5.301,0.039,8.288c0.059,1.524,0.287,2.987,0.656,4.305c0.249,0.974-0.365,1.964-1.34,2.212
		c-0.974,0.249-1.964-0.366-2.212-1.34c-0.746-2.922-0.962-6.803-1.005-9.104L537.995,206.745z"/>
	<path d="M547.938,156.929c4.265-2.208,8.828-1.36,12.121,1.512c3.152,2.725,5.018,6.812,4.604,11.237
		c-0.164,1.292-0.387,2.699-0.638,4.019c-0.337,1.348,0.229,1.932,1.612,1.781c0.201,0.031,0.462-0.051,0.662-0.019
		c4.088-0.052,8.336,2.518,11.329,6.247c6.831,8.625,5.63,21.125-8.392,28.994c-0.233,0.169-0.434,0.138-0.723,0.133
		c-0.461,0.051-1.62,0.608-1.62,0.608c-0.954,0.302-1.982-0.232-2.284-1.187c-3.32-10.498-5.734-18.133-7.357-22.965
		c-0.273-0.867-0.722-1.68-0.722-1.68c-0.251-0.493-0.216-0.982-0.489-1.85c-1.267-3.703-2.479-7.233-3.667-10.389
		c-0.361-0.84-0.887-2.201-1.778-4.114c-1.668-3.767-2.254-5.014-3.195-9.201c0.059-0.109,0.004-0.283-0.023-0.37
		s-0.055-0.174-0.169-0.232C546.819,158.522,547.065,157.49,547.938,156.929z M559.709,175.442c0.748-1.858,1.154-3.896,1.391-6.165
		c0.191-3.02-1.172-6.12-3.414-8.083c-1.563-1.318-3.106-1.976-4.806-1.916c-1.237,0.01-1.712,0.924-1.415,2.165
		c0.654,2.37,1.185,3.443,2.438,6.197c1.143,2.406,2.111,4.867,3.104,7.703C557.613,176.965,559.193,177.133,559.709,175.442z
		 M569.362,206.271c10.118-6.635,10.603-15.664,5.353-22.307c-2.398-3.06-5.65-4.894-8.414-4.879
		c-2.563,0.047-4.484,1.513-5.652,4.459c-0.388,0.887-0.369,1.549-0.095,2.416c1.513,4.484,3.685,11.051,6.347,19.467
		C567.284,206.642,568.258,207.002,569.362,206.271z"/>
	<path d="M596.91,161.243c4.955,15.242,6.813,23.511,6.752,29.673c0.146,4.213-0.714,7.197-2.358,9.078
		c-2.31,2.541-5.109,2.669-7.79,0.871c-1.871-1.27-3.861-3.639-5.949-7.021c-4.435-7.354-14.098-27.226-11.486-40.439
		c0.598-2.91,2.711-6.152,5.34-7.555c4.283-2.247,8.076-0.195,10.749,3.589C593.895,151.883,595.295,155.175,596.91,161.243z
		 M592.223,158.026c-0.853-2.69-1.932-4.845-3.063-6.512c-1.865-2.594-3.773-3.663-6.054-2.359c-1.59,0.731-3.111,3.051-3.43,4.937
		c-2.394,11.641,6.697,30.823,10.945,37.851c1.877,2.97,3.457,4.888,4.879,5.905c1.347,0.755,2.097,0.733,3.038-0.288
		c2.071-2.38,1.97-8.78-0.035-17.574C597.557,175.619,592.532,158.79,592.223,158.026z"/>
	<path d="M600.229,144.054c0.811,4.96,2.563,11.745,5.189,20.466c3.125,10.285,5.012,17.224,5.744,20.794
		c0.712,3.481,1.502,5.815,2.33,7.2c1.094,1.691,2.18,2.257,4.469,1.29c2.464-1.013,3.354-3.028,3.501-6.826
		c0.14-2.01-0.39-4.787-0.845-6.549c-0.229-0.882-0.547-2.115-0.956-3.701c-0.497-1.563-0.793-2.709-0.976-3.414
		c-0.341-1.321-1.186-4.957-2.579-11.083c-1.459-6.015-2.392-9.628-2.909-10.904c-0.293-0.771-0.791-2.334-1.559-4.579
		c-0.787-1.959-1.308-3.61-1.627-4.844c-0.25-0.969,0.339-1.967,1.309-2.217c0.969-0.25,1.967,0.338,2.217,1.308
		c0.296,1.145,0.771,2.62,1.447,4.513c0.879,2.312,1.377,3.875,1.691,4.733c0.518,1.276,1.451,4.889,2.933,10.992
		c1.394,6.126,2.261,9.85,2.603,11.171c0.137,0.529,0.409,1.586,0.93,3.238c0.432,1.674,0.751,2.907,1.001,3.877
		c0.501,1.938,1.078,5.268,0.942,7.652c-0.207,4.659-1.373,8.155-5.685,10.021c-3.982,1.687-7.038,0.407-8.983-2.756
		c-1.094-1.691-2.021-4.554-2.824-8.389c-0.619-3.13-2.482-9.98-5.652-20.44c-2.674-8.897-4.471-15.859-5.327-20.995
		c-0.162-0.992,0.449-1.902,1.529-2.087C599.134,142.362,600.043,142.974,600.229,144.054z"/>
	<path d="M638.519,149.18c-0.458,3.195-0.743,6.724-1.032,10.627l-0.711,9.616l-0.596,10.896l-0.627,9.97
		c-0.034,1.037-0.883,1.8-1.939,1.677c-1.037-0.034-1.801-0.883-1.678-1.94c1.127-18.507,1.641-28.169,1.671-28.83
		c-0.109-0.067-0.24-0.224-0.37-0.38c-1.521-2.071-4.174-5.37-7.961-9.896c-3.786-4.526-6.461-7.913-8.044-10.25
		c-0.544-0.713-0.285-1.99,0.517-2.555c0.801-0.564,1.969-0.374,2.554,0.517c1.714,2.492,4.278,5.813,7.783,9.938
		c1.588,1.961,3.003,3.59,4.048,4.838c0.956,1.27,1.959,2.342,2.281-0.635l0.445-4.034c0.072-0.484,0.221-1.829,0.379-3.925
		c0.424-4.122,0.852-6.655,1.701-9.383c0.432-0.943,1.431-1.462,2.354-1.119c0.923,0.342,1.373,1.451,1.119,2.354
		c-0.845,2.352-1.091,4.468-1.558,8.413L638.519,149.18z"/>
	<path d="M663.258,162.271c0.711-0.156,1.332-0.292,1.797-0.3c3.881-0.569,5.7,1.361,6.697,7.198
		c0.869,5.678,0.363,12.309-2.746,15.131c-4.147,3.608-10.188,0.271-14.762-9.999c-4.145-9.153-7.523-22.479-7.748-32.025
		c-0.208-5.637,0.634-9.453,2.615-11.47c3.119-3.197,6.673-3.136,9.726-1.103c2.747,1.914,4.395,5.187,3.819,8.945
		c-0.182,0.878-1.042,1.625-2.028,1.375c-0.967-0.161-1.714-1.022-1.483-2.098c0.322-1.933-0.697-4.039-2.449-5.239
		c-1.842-1.181-3.481-1.009-5.006,0.536c-2.379,2.756-2.205,12.498,0.775,24.421c2.922,11.657,7.201,21.434,10.521,23.409
		c3.319,1.975,4.775,0.539,5.334-4.147c0.578-4.598-0.449-10.148-1.541-11.307c-0.344-0.298-1.5-0.045-2.566,0.188
		c-0.87,0.283-1.314,0.381-1.403,0.4c-0.978,0.215-1.953-0.41-2.167-1.388c-0.213-0.979,0.412-1.953,1.389-2.167L663.258,162.271z"
		/>
	<path d="M679.068,151.847c-1.16,0.234-1.658,0.985-1.335,2.127c0.468,1.854,0.918,4.085,1.548,6.743
		c1.764,7.35,3.131,13.201,4.213,18.553c0.197,0.981-0.443,1.946-1.424,2.145c-0.982,0.198-1.947-0.442-2.145-1.423
		c-0.775-3.836-1.945-9.17-3.637-16.163c-3.275-13.915-3.525-14.235-5.188-24.299c-0.795-4.853-1.516-8.421-2.073-10.722
		c-0.216-1.071,0.335-2.018,1.405-2.234c0.981-0.198,1.929,0.354,2.127,1.335c0.611,2.568,1.351,6.226,2.127,10.989
		c0.596,3.408,1.047,6.103,1.426,7.976c0.234,1.159,0.984,1.658,2.145,1.424l8.385-1.694c1.16-0.234,1.658-0.984,1.514-2.162
		c-0.559-2.766-0.867-4.746-1.154-6.173c-0.162-0.803-0.379-1.874-0.561-3.229c-0.181-1.356-0.415-2.516-0.577-3.318
		c-0.324-1.606-0.989-3.979-1.92-5.369c-0.556-0.909-0.129-2.016,0.69-2.553c0.82-0.537,1.928-0.111,2.447,0.619
		c1.127,1.908,1.99,4.798,2.35,6.582c0.199,0.98,0.434,2.141,0.633,3.586s0.396,2.426,0.505,2.962
		c0.343,1.694,0.901,4.924,1.731,9.491c0.741,4.585,1.354,8.082,1.716,10.33c1.677,8.76,3.259,14.754,4.765,18.07
		c0.466,0.928,0.111,1.928-0.816,2.394c-0.927,0.466-1.928,0.11-2.393-0.816c-1.738-3.549-3.393-9.898-5.142-19.016
		c-0.253-1.713-0.597-3.872-1.083-6.28c-0.163-1.267-0.914-1.765-2.073-1.531L679.068,151.847z"/>
	<path d="M710.986,131.203c4.596,13.77,8.174,27.542,10.752,41.409c0.184,0.984-0.473,1.938-1.456,2.122
		c-0.983,0.183-1.938-0.473-2.122-1.457c-1.58-8.499-3.518-16.931-5.813-25.297c-0.306-1.146-1.032-1.566-2.212-1.44
		c-2.27,0.237-4.522,0.563-6.775,0.89c-1.09,0.11-1.689,0.87-1.58,1.96c0.381,3.539,0.848,8.542,1.549,14.799
		c0.8,6.792,1.157,10.706,1.161,11.724c0.093,1-0.774,1.81-1.774,1.903c-1.002,0.093-1.811-0.774-1.904-1.775
		c-0.061-0.821-0.4-4.646-1.111-11.455c-1.631-15.246-2.699-25.969-2.625-34.035c0.103-4.924,0.584-8.809,2.531-10.281
		c3.554-2.789,6.631-0.677,8.508,2.954c0.781,1.706,1.537,3.786,2.256,6.151L710.986,131.203z M703.23,143.752
		c1.789-0.333,3.596-0.576,5.49-0.836c1.27-0.144,1.869-0.902,1.547-2.139c-0.891-2.796-1.781-5.593-2.76-8.372
		c-0.084-0.447-0.885-3.26-1.502-5.089c-0.518-1.292-1.265-2.819-2.001-3.793c-0.491-0.649-1.144-1.176-1.793-0.685
		c-0.397,0.352-0.817,1.077-1.049,2.323c-0.215,1.336-0.436,3.136-0.467,5.455c0.012,3.052,0.157,6.82,0.469,11.482
		C701.309,143.368,701.961,143.896,703.23,143.752z"/>
	<path d="M721.741,162.119c-0.196-0.612-0.526-1.479-0.845-2.81c-0.303-1.241-0.514-1.943-0.648-2.198
		c-0.257-0.972,0.219-1.975,1.281-2.247c0.971-0.257,1.975,0.22,2.246,1.281c0.137,0.254,0.362,1.046,0.664,2.287
		c0.695,2.467,0.86,2.9,1.523,4.634c0.662,1.733,1.413,2.898,2.313,3.854c1.035,1.209,1.98,1.88,2.713,1.848
		c0.464,0.014,0.882-0.241,1.344-0.781c1.299-1.604,1.921-3.924,2.048-6.991c0.399-8.005-3.489-31.526-6.446-41.363
		c-0.361-1.046-1.08-1.479-2.246-1.28l-4.307,0.729c-0.987,0.163-1.932-0.508-2.099-1.494c-0.167-0.987,0.504-1.932,1.491-2.099
		c6.818-1.15,12.097-2.136,15.745-2.938c0.987-0.167,2.005,0.398,2.173,1.386c0.166,0.987-0.399,2.006-1.387,2.173
		c-1.42,0.333-2.855,0.575-4.455,0.938c-1.166,0.197-1.673,1.021-1.297,2.157c3.078,10.555,6.816,33.732,6.537,41.901
		c-0.17,3.905-1.135,6.93-2.879,9.163c-2.521,3.103-6.142,2.977-9.651-0.859c-1.229-1.269-2.146-2.866-2.96-4.944L721.741,162.119z"
		/>
	<path d="M745.639,112.106c4.09-0.344,6.895,1.164,10.307,4.236c6.586,5.812,9.592,14.099,9.092,24.759
		c-0.4,8.896-3.512,18.111-7.941,25.317c-0.229,0.311-0.459,0.621-0.805,0.766c-0.691,0.289-2.041,0.494-2.041,0.494
		c-0.824,0.032-1.432-0.336-1.811-1.015c-0.027-0.18-0.131-0.256-0.145-0.346c-1.709-7.012-3.301-15.697-4.779-26.058
		c-0.471-3.702-2.484-19.411-3.479-25.979l-0.027-0.18c-0.149-0.989,0.55-1.832,1.54-1.982L745.639,112.106z M756.891,158.995
		c6.227-13.554,7.137-30.625-3.291-39.904c-1.27-1.096-2.32-1.949-3.404-2.429c-1.217-0.736-2.098,0.134-1.879,1.573
		c0.906,6.581,2.328,17.777,2.811,21.57c1.002,7.211,2.061,13.584,3.148,18.941C754.625,160.442,756.223,160.661,756.891,158.995z"
		/>
	<path d="M771.885,109.993c-0.992,0.132-1.533,0.204-1.521,0.294c-0.133,0.385-0.15,0.938-0.145,1.672
		c0.1,2.832,0.748,6.326,1.834,11.048c0.479,2.231,0.762,3.663,0.82,4.113c0.072,0.542,0.205,1.534,0.408,3.067
		c0.078,1.275,0.793,1.822,1.965,1.667c0.902-0.12,1.625-0.216,2.334-0.401c0.992-0.132,1.99,0.47,2.123,1.462
		c0.131,0.992-0.471,1.99-1.463,2.122c-0.711,0.187-1.703,0.318-2.695,0.45c-1.172,0.155-1.721,0.87-1.654,2.056
		c0.832,8.335,1.572,15.305,2.594,20.219c0.293,1.521,0.539,2.683,0.918,3.458c0.012,0.091,0.125,0.259,0.137,0.349
		c0.025,0.181,0.512,0.392,1.527,0.44c1.932,0.019,4.15-0.551,6.742-1.079c1.342-0.27,2.322-0.492,2.953-0.575
		c0.992-0.132,1.912,0.572,2.043,1.564c0.133,0.992-0.572,1.912-1.564,2.044c-0.541,0.071-1.432,0.281-2.682,0.539
		c-1.611,0.306-2.773,0.552-3.404,0.636c-2.953,0.576-5.244,0.604-6.873,0.087c-1.232-0.296-1.84-1.408-2.289-2.726
		c-0.402-0.956-0.764-2.285-1.082-3.987c-1.09-5.455-1.953-13.327-2.473-19.317c-0.305-2.989-0.537-5.437-0.723-7.523
		c-0.174-1.996-0.354-3.35-0.449-4.071c-0.049-0.36-0.307-1.611-0.773-3.753c-1.109-4.901-1.818-8.847-1.93-11.77
		c0.018-1.931,0.141-3.782,1.385-4.774c0.324-0.318,0.854-0.48,1.564-0.666l5.863-0.778c4.354-0.395,6.711-0.616,7.061-0.754
		c1.07-0.234,1.979,0.38,2.199,1.359c0.162,0.529,0.043,1.005-0.18,1.401c-0.314,0.409-0.74,0.649-1.18,0.8
		c-0.439,0.149-2.977,0.395-7.512,0.813l-3.789,0.503L771.885,109.993z"/>
	<path d="M809.582,145.218c-0.244-2.262-0.773-6.323-1.588-12.185c-1.619-11.632-2.396-19.693-2.17-27.771
		c-0.016-1.005,0.82-1.735,1.916-1.762c1.004-0.017,1.736,0.819,1.762,1.915c-0.256,7.807,0.492,15.597,2.092,27.047
		c0.795,5.681,1.334,9.832,1.607,12.365l0.77,7.147c0.086,1.638,0.223,2.904,0.238,3.909c-0.031,0.553-0.084,0.925-0.135,1.296
		c-0.094,0.834-0.307,1.406-1.08,1.855c-0.686,0.44-1.529,0.257-2.111-0.047c-0.1-0.081-0.209-0.252-0.311-0.333
		c-0.1-0.08-0.311-0.332-0.439-0.685c-0.119-0.262-0.25-0.613-0.479-1.047l-1.438-3.14l-3.041-6.993
		c-1.777-3.744-3.68-8.664-5.801-14.751c-1.064-3.088-1.99-5.734-2.768-7.847c-0.527-1.499-2.273-4.972-2.273-4.972
		c0.191,2.634,0.316,4.634,0.463,5.99c0.262,2.443,0.592,6.343,0.986,11.7c0.313,5.457,0.662,9.538,0.943,12.162
		c0.293,2.714,0.873,6.403,1.834,11.06c0.207,1.075-0.328,2.049-1.314,2.246c-1.076,0.208-2.049-0.328-2.246-1.313
		c-0.785-3.027-1.355-6.627-1.805-10.788c-0.447-4.162-0.854-8.785-1.129-13.881c-0.355-4.995-0.654-8.624-0.889-10.795
		c-0.146-1.357-0.281-3.448-0.402-6.271c-0.191-2.634-0.316-4.634-0.463-5.991l-0.447-4.161c-0.01-0.091-0.01-0.091-0.02-0.181
		c0,0-0.119-0.262-0.25-0.614c-0.197-0.985-0.295-1.89,0.723-2.641c0.424-0.32,0.967-0.378,1.527-0.256
		c1.025,0.164,1.646,0.829,2.045,1.977c0.109,0.171,0.139,0.442,0.168,0.714c0.01,0.09,0.1,0.08,0.109,0.171
		s0.141,0.442,0.488,1.137c0.25,0.614,0.709,1.479,1.197,2.617c0.809,1.56,1.318,2.878,1.697,3.844
		c0.387,1.057,7.594,22.062,10.945,29.389l-1.098-2.536c0.729,1.66,2.389,4.318,2.34,3.866L809.582,145.218z"/>
</g>
<path fill="none" d="M213.988,735.31c0,0,194.291-28.713,269.637-55.663s202.54-50.737,270.187-56.093"/>
<text transform="matrix(0.9879 -0.1551 0.1551 0.9879 221.9102 734.1318)"><tspan x="0" y="0" font-family="'Mathlete-Bulky'" font-size="91">B</tspan><tspan x="22.731" y="0" font-family="'Mathlete-Bulky'" font-size="91" rotate="-0.35">e</tspan><tspan x="45.651" y="-0.137" font-family="'Mathlete-Bulky'" font-size="91" rotate="-0.707">h</tspan><tspan x="71.055" y="-0.452" font-family="'Mathlete-Bulky'" font-size="91" rotate="-1.087">a</tspan><tspan x="94.129" y="-0.887" font-family="'Mathlete-Bulky'" font-size="91" rotate="-1.495">n</tspan><tspan x="117.85" y="-1.5" font-family="'Mathlete-Bulky'" font-size="91" rotate="-1.981">c</tspan><tspan x="142.52" y="-2.354" font-family="'Mathlete-Bulky'" font-size="91" rotate="-2.555">e</tspan><tspan x="165.371" y="-3.396" font-family="'Mathlete-Bulky'" font-size="91" rotate="-3.046">.</tspan><tspan x="176.371" y="-3.944" font-family="'Mathlete-Bulky'" font-size="91" rotate="-3.654">n</tspan><tspan x="200.935" y="-5.51" font-family="'Mathlete-Bulky'" font-size="91" rotate="-4.767">e</tspan><tspan x="225.067" y="-7.494" font-family="'Mathlete-Bulky'" font-size="91" rotate="-6.532">t</tspan><tspan x="252.289" y="-10.565" font-family="'Mathlete-Bulky'" font-size="91" rotate="-10.228">/</tspan><tspan x="276.37" y="-15.058" font-family="'Mathlete-Bulky'" font-size="91" rotate="-8.463">b</tspan><tspan x="302.297" y="-18.875" font-family="'Mathlete-Bulky'" font-size="91" rotate="-6.727">o</tspan><tspan x="324.645" y="-21.499" font-family="'Mathlete-Bulky'" font-size="91" rotate="-5.512">u</tspan><tspan x="345.562" y="-23.536" font-family="'Mathlete-Bulky'" font-size="91" rotate="-4.422">y</tspan><tspan x="371.048" y="-25.492" font-family="'Mathlete-Bulky'" font-size="91" rotate="-3.441">g</tspan><tspan x="393.442" y="-26.849" font-family="'Mathlete-Bulky'" font-size="91" rotate="-2.543">h</tspan><tspan x="418.664" y="-27.963" font-family="'Mathlete-Bulky'" font-size="91" rotate="-1.666">a</tspan><tspan x="441.599" y="-28.647" font-family="'Mathlete-Bulky'" font-size="91" rotate="-0.746">j</tspan><tspan x="468.082" y="-28.98" font-family="'Mathlete-Bulky'" font-size="91" rotate="0.234">d</tspan><tspan x="489.913" y="-28.904" font-family="'Mathlete-Bulky'" font-size="91" rotate="1.3">e</tspan><tspan x="512.537" y="-28.417" font-family="'Mathlete-Bulky'" font-size="91" rotate="2.736">n</tspan></text>
</svg>
