<?xml version="1.0" encoding="utf-8"?>
<!-- Generator: Adobe Illustrator 15.1.0, SVG Export Plug-In . SVG Version: 6.00 Build 0)  -->
<!DOCTYPE svg PUBLIC "-//W3C//DTD SVG 1.1//EN" "http://www.w3.org/Graphics/SVG/1.1/DTD/svg11.dtd">
<svg version="1.1" id="Layer_1" xmlns="http://www.w3.org/2000/svg" xmlns:xlink="http://www.w3.org/1999/xlink" x="0px" y="0px"
	 width="41.409px" height="58.091px" viewBox="0 0 41.409 58.091" enable-background="new 0 0 41.409 58.091" xml:space="preserve">
<g>
	<g>
		<rect x="19.591" y="7.618" fill="#F5FE07" width="1.213" height="40.757"/>
	</g>
	<g>
		<rect x="16.01" y="42.97" fill="#F5FE07" width="8.374" height="1.21"/>
	</g>
	<g>
		<polygon fill="#F5FE07" points="17.237,48.344 16.029,48.293 16.029,42.997 17.237,42.997 		"/>
	</g>
	<g>
		<polygon fill="#F5FE07" points="24.419,48.313 23.214,48.344 23.214,42.997 24.419,42.997 		"/>
	</g>
	<g>
		<polygon fill="#F5FE07" points="24.448,38.045 19.857,34.987 20.53,33.985 24.316,36.509 26.42,34.534 27.245,35.417 		"/>
	</g>
	<g>
		<polygon fill="#F5FE07" points="15.948,38.045 13.144,35.417 13.974,34.534 16.07,36.509 19.857,33.985 20.53,34.987 		"/>
	</g>
	<g>
		<polygon fill="#F5FE07" points="24.448,33.077 19.857,30.019 20.53,29.017 24.316,31.541 26.42,29.566 27.245,30.448 		"/>
	</g>
	<g>
		<polygon fill="#F5FE07" points="15.948,33.077 13.144,30.448 13.974,29.566 16.07,31.541 19.857,29.017 20.53,30.019 		"/>
	</g>
	<g>
		<polygon fill="#F5FE07" points="24.448,28.172 19.857,25.114 20.53,24.109 24.316,26.635 26.42,24.661 27.245,25.541 		"/>
	</g>
	<g>
		<polygon fill="#F5FE07" points="15.948,28.172 13.144,25.541 13.974,24.661 16.07,26.635 19.857,24.109 20.53,25.114 		"/>
	</g>
	<g>
		<polygon fill="#F5FE07" points="24.448,24.115 19.857,21.054 20.53,20.05 24.316,22.579 26.42,20.601 27.245,21.484 		"/>
	</g>
	<g>
		<polygon fill="#F5FE07" points="15.948,24.115 13.144,21.484 13.974,20.601 16.07,22.579 19.857,20.05 20.53,21.054 		"/>
	</g>
	<g>
		<polygon fill="#F5FE07" points="24.448,18.929 19.857,15.874 20.53,14.869 24.316,17.393 26.42,15.421 27.245,16.303 		"/>
	</g>
	<g>
		<polygon fill="#F5FE07" points="15.948,18.929 13.144,16.303 13.974,15.421 16.07,17.393 19.857,14.869 20.53,15.874 		"/>
	</g>
	<g>
		<polygon fill="#F5FE07" points="24.448,14.079 19.857,11.018 20.53,10.014 24.316,12.541 26.42,10.568 27.245,11.448 		"/>
	</g>
	<g>
		<polygon fill="#F5FE07" points="15.948,14.079 13.144,11.448 13.974,10.568 16.07,12.541 19.857,10.014 20.53,11.018 		"/>
	</g>
</g>
</svg>
