<?xml version="1.0" encoding="utf-8"?>
<!-- Generator: Adobe Illustrator 16.0.0, SVG Export Plug-In . SVG Version: 6.00 Build 0)  -->
<!DOCTYPE svg PUBLIC "-//W3C//DTD SVG 1.1//EN" "http://www.w3.org/Graphics/SVG/1.1/DTD/svg11.dtd">
<svg version="1.1" id="Layer_1" xmlns="http://www.w3.org/2000/svg" xmlns:xlink="http://www.w3.org/1999/xlink" x="0px" y="0px"
	 width="664px" height="351.25px" viewBox="0 0 664 351.25" enable-background="new 0 0 664 351.25" xml:space="preserve">
<rect x="-177.27" y="-94.966" display="none" fill="#383838" width="1106" height="715"/>
<path fill="#FFFFFF" d="M371.942,276.738c0.011-0.056,0.018-0.1,0.021-0.134c-0.006,0.046-0.016,0.104-0.023,0.163
	C371.94,276.756,371.942,276.748,371.942,276.738z"/>
<path fill="#FFFFFF" d="M537.541,112.944C537.703,113.106,537.441,112.843,537.541,112.944L537.541,112.944z"/>
<path fill="#FFFFFF" d="M483.86,268.471C483.767,268.578,483.726,268.621,483.86,268.471L483.86,268.471z"/>
<path fill="#FFFFFF" d="M484.083,268.214C484.302,267.962,484.22,268.058,484.083,268.214L484.083,268.214z"/>
<path fill="#FFFFFF" d="M339.005,238.451c-0.011,0.041-0.019,0.104-0.026,0.16c0.004-0.012,0.004-0.015,0.004-0.027
	C338.992,238.529,339.001,238.482,339.005,238.451z"/>
<path fill="#FFFFFF" d="M483.968,268.344c-0.037,0.048-0.078,0.088-0.104,0.125C483.888,268.437,483.925,268.396,483.968,268.344z"
	/>
<path fill="#FFFFFF" d="M560.798,224.533L560.798,224.533c0.064,0.08,0.117,0.16,0.18,0.24c0.002,0,0.002-0.002,0.002-0.002
	C560.927,224.703,560.862,224.619,560.798,224.533z"/>
<path fill="#FFFFFF" d="M425.61,253.386c0.031-0.028,0.104-0.083,0.221-0.175C425.729,253.291,425.646,253.355,425.61,253.386z"/>
<path fill="#FFFFFF" d="M528.81,320.925c-0.618,0.256-0.556,0.326-0.9,0.979c0.347,0.292,0.9,0.147,1.146-0.241
	C529.368,321.253,529.075,320.778,528.81,320.925z"/>
<path fill="#FFFFFF" d="M528.62,318.349c-0.25,0.172,0.211,0.935,0.515,0.813c0.359-0.157,0.642-0.652,0.438-0.908
	C529.295,317.898,529.023,318.098,528.62,318.349z"/>
<g>
	<path fill="#FFFFFF" d="M514.671,242.491c-7.691,1.438-17.693-8.079-25.973-0.558c-8.004,5.137-7.112-5.769-1.277-6.282
		c5.12-0.447,8.75,1.474,11.569-0.579c-4.711,1.283-13.754-5.959-17.783,0.416c-3.21,5.081-14.979,2.576-14.759-3.573
		c0.016-0.468,0.102-0.954,0.263-1.452c-0.439,0.364-0.86,0.827-1.263,1.365c-4.789,6.488-5.917,24.159,11.484,24.154
		c4.085-0.001,7.981-3.348,16.258-2.123c-6.347-2.728-10.381-1.128-11.866-1.935c-2.661-1.434,0.228-3.681,2.692-3.004
		c1.73,0.386,16.153,5.063,20.584-4.167c-2.633,2.946-11.672,4.87-12.374,1.215C491.585,236.935,510.634,245.854,514.671,242.491z"
		/>
	<path fill="#FFFFFF" d="M474.34,240.039c-0.02,0.352,0.283,0.414,0.545,0.207c0.134-0.096,0.771-0.874,0.537-0.996
		C474.97,239.044,474.391,239.518,474.34,240.039z"/>
	<path fill="#FFFFFF" d="M488.752,222.407c0.17,0.094,0.354-0.139,0.402-0.244c0.04-0.104,0.027-0.289-0.148-0.368
		c-0.176-0.085-0.415,0.101-0.465,0.259C488.5,222.206,488.567,222.312,488.752,222.407z"/>
	<path fill="#FFFFFF" d="M490.558,222.39c0.166,0.087,0.359-0.145,0.401-0.246c0.04-0.105,0.029-0.29-0.151-0.371
		c-0.175-0.09-0.412,0.102-0.459,0.258C490.303,222.187,490.374,222.286,490.558,222.39z"/>
	<path fill="#FFFFFF" d="M492.5,222.348c0.166,0.085,0.354-0.146,0.398-0.249c0.042-0.104,0.029-0.289-0.145-0.371
		c-0.179-0.087-0.42,0.104-0.465,0.264C492.247,222.144,492.31,222.245,492.5,222.348z"/>
	<path fill="#FFFFFF" d="M494.421,222.348c0.17,0.085,0.36-0.146,0.402-0.249c0.044-0.104,0.03-0.289-0.146-0.371
		c-0.177-0.087-0.414,0.104-0.466,0.264C494.171,222.144,494.239,222.245,494.421,222.348z"/>
	<path fill="#FFFFFF" d="M496.25,222.381c0.173,0.084,0.356-0.147,0.397-0.253c0.048-0.102,0.035-0.284-0.142-0.369
		c-0.18-0.085-0.418,0.102-0.466,0.259C496.001,222.174,496.067,222.28,496.25,222.381z"/>
	<path fill="#FFFFFF" d="M462.018,205.995c-0.017,0.233,0.257,0.623,0.282,0.695c0.023,0.078,0.499,2.342,0.641,2.393
		c0.143,0.048,0.143-1.264,0.396-1.319c0.304,0.192,1.428,1.506,1.851,1.952c0.42,0.439,1.508,1.658,1.646,1.652
		c0.146,0,0.39-0.032,0.45-0.065c0.058-0.031-1.229-1.44-1.464-1.688c-0.234-0.244-2.098-2.002-1.979-2.285
		c0.201-0.209,0.957-0.06,1.078-0.233c0.118-0.187-2.795-1.237-2.892-1.106"/>
	<path fill="#FFFFFF" d="M475.453,220.064c-0.464,0.039-0.368,0.035-0.543,0.087c-0.086,0.065,1.034,1.098,1.196,1.271
		c0.159,0.169,2.085,2.041,2.078,2.198c-0.002,0.154-0.11,0.922-0.022,1.004c0.09,0.09,0.217,0.369,0.284,0.275
		c0.068-0.093-0.037-1.304,0.042-1.408c0.081-0.106,1.401-0.076,1.401-0.076s-0.194-0.25-0.284-0.276
		c-0.089-0.026-1.129,0.151-1.232,0.05c-0.105-0.097-1.77-1.808-1.82-1.89C476.502,221.208,475.546,220.055,475.453,220.064z"/>
	<path fill="#FFFFFF" d="M478.606,223.603c-0.027,0.111-0.021,1.428,0.035,1.48c0.056,0.057,1.025,0.969,1.191,1.121
		c0.162,0.154,0.418,0.432,0.42,0.27c0-0.164-0.083-1.214,0.004-1.314c0.09-0.094,1.271,0.084,1.346-0.045
		c0.07-0.136-0.391-0.453-0.57-0.631c-0.186-0.168-0.94-0.947-1.06-0.945C479.854,223.546,478.635,223.526,478.606,223.603z"/>
	<path fill="#FFFFFF" d="M480.871,206.333c0.021,0.231-0.259,0.623-0.279,0.693c-0.026,0.077-0.501,2.344-0.643,2.391
		c-0.14,0.05-0.138-1.26-0.394-1.316c-0.307,0.193-1.431,1.508-1.854,1.951c-0.418,0.445-1.503,1.659-1.645,1.65
		c-0.143,0-0.389-0.025-0.444-0.06c-0.063-0.032,1.228-1.442,1.464-1.69c0.23-0.248,2.093-1.998,1.977-2.282
		c-0.202-0.214-0.964-0.056-1.082-0.236c-0.116-0.187,2.8-1.237,2.896-1.104"/>
	<path fill="#FFFFFF" d="M467.776,220.064c0.466,0.041,0.371,0.035,0.551,0.087c0.083,0.065-1.037,1.098-1.199,1.271
		c-0.161,0.169-2.082,2.041-2.08,2.198c0.005,0.154,0.114,0.922,0.022,1.004c-0.088,0.09-0.215,0.369-0.286,0.275
		c-0.065-0.093,0.042-1.304-0.04-1.408c-0.079-0.106-1.403-0.076-1.403-0.076s0.204-0.25,0.289-0.276
		c0.084-0.026,1.127,0.151,1.23,0.05c0.102-0.097,1.769-1.804,1.821-1.89C466.729,221.208,467.685,220.055,467.776,220.064z"/>
	<path fill="#FFFFFF" d="M464.622,223.603c0.031,0.111,0.021,1.428-0.03,1.48c-0.057,0.057-1.027,0.969-1.194,1.121
		c-0.16,0.154-0.41,0.432-0.419,0.27c0-0.164,0.084-1.214-0.007-1.314c-0.088-0.094-1.269,0.084-1.34-0.045
		c-0.071-0.136,0.385-0.453,0.568-0.631c0.182-0.168,0.938-0.947,1.058-0.945C463.376,223.546,464.599,223.526,464.622,223.603z"/>
	<g id="Expanded_69_">
		<g>
			<g>
				<path fill="#FFFFFF" d="M474.25,223.587c-0.171,0-0.125-0.35-0.125-0.52l-0.188-3.217h0.312c1.548,0,2.806-1.261,2.806-2.811
					v-1.562c0-3.091-2.513-5.942-5.605-5.942c-3.094,0-5.614,2.854-5.614,5.942v1.562c0,1.55,1.26,2.811,2.809,2.811h0.31
					l-0.21,3.045c0,0.172,0.075,0.688-0.1,0.688c-0.174,0-0.312-0.139-0.312-0.311l0.153-3.043
					c-1.745-0.162-3.046-1.547-3.046-3.334l-0.228-1.418c0-3.438,2.793-6.234,6.232-6.234c3.437,0,5.963,2.679,5.963,6.119
					l0.272,1.676c0,1.789-1.372,3.259-3.12,3.418v2.816C474.56,223.45,474.425,223.587,474.25,223.587z"/>
			</g>
			<g>
				<path fill="#FFFFFF" d="M470.51,223.587c-0.173,0-0.311-0.137-0.311-0.309v-3.113c0-0.176,0.138-0.313,0.311-0.313
					c0.177,0,0.311,0.136,0.311,0.313l-0.164,2.791C470.654,223.126,470.687,223.587,470.51,223.587z"/>
			</g>
			<g>
				<path fill="#FFFFFF" d="M472.382,223.587c-0.175,0-0.312-0.137-0.312-0.309l0.138-3.056c0-0.177,0-0.372,0.175-0.372
					c0.173,0,0.311,0.137,0.311,0.312v3.113C472.692,223.45,472.555,223.587,472.382,223.587z"/>
			</g>
			<g>
				<path fill="#FFFFFF" d="M474.25,219.228c-1.201,0-1.965-1.178-1.965-2.383c0-1.201,0.764-1.982,1.965-1.982
					c1.205,0,2.183,0.983,2.183,2.184C476.433,218.245,475.453,219.228,474.25,219.228z M474.25,215.485
					c-0.859,0-1.56,0.699-1.56,1.561s0.698,1.561,1.56,1.561c0.863,0,1.562-0.695,1.562-1.561
					C475.809,216.185,475.113,215.485,474.25,215.485z"/>
			</g>
			<g>
				<path fill="#FFFFFF" d="M468.641,219.228c-1.203,0-2.184-0.982-2.184-2.184c0-1.198,0.979-2.182,2.184-2.182
					c1.202,0,1.869,0.856,1.869,2.062C470.51,218.124,469.843,219.228,468.641,219.228z M468.641,215.485
					c-0.857,0-1.561,0.699-1.561,1.561s0.701,1.561,1.561,1.561c0.861,0,1.443-0.695,1.443-1.561
					C470.084,216.185,469.502,215.485,468.641,215.485z"/>
			</g>
			<g>
				<path fill="#FFFFFF" d="M465.596,214.862c-0.173,0-0.312-0.139-0.312-0.311c0-0.173,0.42-0.15,0.59-0.15
					c0.849,0,1.833-0.744,1.833-2.344c0-0.173,0.136-0.312,0.311-0.312c0.169,0,0.312,0.14,0.312,0.312
					C468.327,213.901,466.951,214.862,465.596,214.862z"/>
			</g>
			<g>
				<path fill="#FFFFFF" d="M477.18,214.862c-1.354,0-2.729-0.961-2.729-2.805c0-0.173,0.139-0.312,0.311-0.312
					c0.173,0,0.18,0.414,0.18,0.586c0,1.604,1.396,1.904,2.241,1.904c0.173,0,0.077,0.104,0.077,0.274
					C477.257,214.686,477.351,214.862,477.18,214.862z"/>
			</g>
			<g>
				<path fill="#FFFFFF" d="M471.761,219.356c0,0-0.002,0-0.006,0l-0.557-0.179c-0.107,0-0.277,0.125-0.332,0.031
					c-0.062-0.093-0.063-0.208-0.018-0.304l0.312-0.621c0.105-0.211,0.453-0.211,0.561,0l0.289,0.572
					c0.034,0.053,0.061,0.118,0.061,0.191C472.071,219.219,471.934,219.356,471.761,219.356z"/>
			</g>
		</g>
	</g>
	<g id="Expanded_81_">
		<g>
			<g>
				<g>
					<path fill="#FFFFFF" d="M517.802,216.032h-1.446v-0.724h1.446c0.201,0,0.589-0.437,0.589-0.635l0.157-4.063
						c0-1.152-1.232-1.086-1.472-1.086l-7.951-0.356c-0.602,0-1.088,0.844-1.088,1.442l-0.283,4.293
						c0,0.201,0.444,0.405,0.646,0.405h1.443v0.724h-1.443c-0.6,0-1.086-0.485-1.086-1.084v-4.34c0-0.996,0.814-1.809,1.81-1.809
						h7.953c1,0,1.808,0.812,1.808,1.809v4.34C518.885,215.546,518.401,216.032,517.802,216.032z"/>
				</g>
				<g>
					<path fill="#FFFFFF" d="M516.719,209.213l-1.681-0.124c-0.197,0-0.728,0.037-0.728-0.159l-0.127-1.212
						c0-0.201,0.168-0.364,0.367-0.364h2.167c0.203,0,0.169,0.201,0.169,0.402l0.192,1.409
						C517.077,209.362,516.918,209.213,516.719,209.213z M514.913,208.798h1.438v-0.721h-1.438V208.798z"/>
				</g>
				<g>
					<path fill="#FFFFFF" d="M511.656,209.087h-2.17c-0.197,0-0.36-0.162-0.36-0.361v-1.449c0-0.197,0.38-0.146,0.582-0.146
						l1.947-0.216c0.196,0,0.361,0.164,0.361,0.361v1.448C512.02,208.925,511.857,209.087,511.656,209.087z M509.846,208.362
						l1.657,0.408l-0.208-1.133h-1.45L509.846,208.362L509.846,208.362z"/>
				</g>
				<g>
					<path fill="#FFFFFF" d="M508.401,221.815h-2.166c-0.198,0-0.362-0.162-0.362-0.361l0.272-1.084
						c0-0.797,0.375-1.443,1.172-1.443h1.086c0.202,0,0.361,0.156,0.361,0.355v2.17
						C508.765,221.655,508.605,221.815,508.401,221.815z M506.593,221.089l1.58,0.367l-0.135-1.81h-0.724
						c-0.396,0-0.724,0.32-0.724,0.722L506.593,221.089L506.593,221.089z"/>
				</g>
				<g>
					<path fill="#FFFFFF" d="M508.592,224.348l-1.636,0.364c-0.599,0-0.757-0.812-0.757-1.41l-0.328-1.846
						c0-0.201,0.164-0.367,0.361-0.367l2.167,0.391c0.202,0,0.363-0.225,0.363-0.021v2.892
						C508.538,223.907,508.538,223.907,508.592,224.348z M506.593,221.815v1.809c0,0.199,0.167,0.359,0.363,0.359h1.082v-2.169
						L506.593,221.815L506.593,221.815z"/>
				</g>
				<g>
					<path fill="#FFFFFF" d="M519.974,221.815h-2.171c-0.197,0-0.363-0.162-0.363-0.361v-2.17c0-0.201,0.166-0.356,0.363-0.356
						h1.083c0.798,0,1.213,0.646,1.213,1.442l0.078,0.938C520.177,221.513,520.17,221.815,519.974,221.815z M518.162,221.089
						l1.477,0.213l-0.028-0.934c0-0.399-0.32-1.021-0.724-1.021l-0.724,0.3L518.162,221.089L518.162,221.089z"/>
				</g>
				<g>
					<path fill="#FFFFFF" d="M519.249,224.711h-1.445c-0.2,0-0.363-0.166-0.363-0.364v-2.895c0-0.201,0.163-0.365,0.363-0.365
						l2.225,0.365c0.199,0,0.147,0.072,0.147,0.274l0.161,1.896C520.337,224.223,519.849,224.711,519.249,224.711z M518.162,223.987
						h1.088c0.202,0,0.36-0.164,0.36-0.363v-1.807h-1.448V223.987L518.162,223.987z"/>
				</g>
				<g>
					<path fill="#FFFFFF" d="M516.355,221.815h-6.51c-0.197,0-0.356-0.162-0.356-0.361l0.363-1.084c0-0.797,0.284-1.443,1.082-1.443
						h4.337c0.798,0,1.447,0.646,1.447,1.443v1.084C516.719,221.655,516.558,221.815,516.355,221.815z M510.211,221.089h5.786
						v-0.721c0-0.399-0.328-1.021-0.728-1.021l-4.337,0.299c-0.396,0-0.722,0.32-0.722,0.722V221.089L510.211,221.089
						L510.211,221.089z"/>
				</g>
				<g>
					<path fill="#FFFFFF" d="M510.571,217.839c-0.599,0-0.839-0.569-0.839-1.162l-0.206-1.995c0-0.601,0.442-0.815,1.045-0.815
						c0.6,0,1.085,0.483,1.085,1.084l-0.181,1.492C511.478,217.036,511.171,217.839,510.571,217.839z M510.571,214.581
						c-0.202,0-0.36,0.164-0.36,0.365v1.81c0,0.198,0.159,0.36,0.36,0.36c0.194,0,0.36-0.164,0.36-0.36v-1.81
						C510.935,214.745,510.768,214.581,510.571,214.581z"/>
				</g>
				<g>
					<path fill="#FFFFFF" d="M515.634,217.839c-0.594,0-1.082-0.487-1.082-1.083l0.175-1.927c0-0.602,0.312-0.676,0.907-0.676
						c0.599,0,0.885,0.104,0.885,0.697l0.023,1.33C516.544,216.776,516.231,217.839,515.634,217.839z M515.634,214.581
						c-0.2,0-0.362,0.164-0.362,0.365l-0.231,1.935c0,0.202,0.396,0.235,0.596,0.235s0.363-0.162,0.363-0.359v-1.809
						C515.997,214.745,515.834,214.581,515.634,214.581z"/>
				</g>
				<g>
					<path fill="#FFFFFF" d="M517.077,210.61l-7.951,0.363c-0.2,0-0.362-0.166-0.362-0.363c0-0.199,0.162-0.363,0.362-0.363h7.951
						c0.198,0,0.361,0.164,0.361,0.363C517.44,210.807,517.276,210.61,517.077,210.61z"/>
				</g>
				<g>
					<path fill="#FFFFFF" d="M509.846,211.694c-0.197,0-0.356-0.164-0.356-0.363v-0.723c0-0.197,0.16-0.363,0.356-0.363
						c0.205,0,0.367,0.162,0.367,0.363l-0.15,0.682C510.06,211.493,510.049,211.694,509.846,211.694z"/>
				</g>
				<g>
					<path fill="#FFFFFF" d="M511.296,222.54c-0.202,0-0.361-0.164-0.361-0.366v-1.442c0-0.203,0.16-0.361,0.361-0.361
						c0.198,0,0.36,0.16,0.36,0.361l-0.36,1.402C511.296,222.329,511.494,222.54,511.296,222.54z"/>
				</g>
				<g>
					<path fill="#FFFFFF" d="M514.913,222.54c-0.204,0,0-0.252-0.361-0.366v-1.442c0-0.203,0.158-0.361,0.361-0.361
						c0.199,0,0,0.138,0,0.34l0.355,1.466C515.271,222.374,515.112,222.54,514.913,222.54z"/>
				</g>
				<g>
					<rect x="511.296" y="215.308" fill="#FFFFFF" width="3.617" height="0.723"/>
				</g>
				<g>
					<path fill="#FFFFFF" d="M508.401,219.649c-0.199,0,0-0.277,0-0.478l-0.361-3.502c0-0.197,0.165-0.362,0.361-0.362
						c0.204,0,0.363,0.165,0.363,0.362v3.612C508.765,219.487,508.605,219.649,508.401,219.649z"/>
				</g>
				<g>
					<path fill="#FFFFFF" d="M517.802,219.649c-0.198,0-0.363-0.162-0.363-0.365l0.228-3.435c0-0.198-0.062-0.541,0.138-0.541
						c0.201,0,0.359,0.165,0.359,0.362v3.613C518.162,219.487,518.003,219.649,517.802,219.649z"/>
				</g>
				<g>
					<path fill="#FFFFFF" d="M517.802,224.711l-9.211-0.364c-0.203,0-0.553,0.198-0.553,0c0-0.203,0.164-0.363,0.363-0.363h9.398
						c0.201,0,0.359,0.161,0.359,0.363C518.162,224.545,518.003,224.711,517.802,224.711z"/>
				</g>
				<g>
					<path fill="#FFFFFF" d="M516.362,224.348C516.164,224.348,516.362,224.545,516.362,224.348l-0.365-2.532h-5.786l-0.163,2.346
						c0,0.201,0,0-0.199,0s-0.199,0-0.36,0.188v-2.893c0-0.201,0.158-0.366,0.356-0.366h6.509c0.204,0,0.362,0.165,0.362,0.366
						v2.893C516.719,224.545,516.563,224.348,516.362,224.348z"/>
				</g>
			</g>
		</g>
	</g>
	<g>
		<path fill="#FFFFFF" d="M496.369,220.055l-8.186-0.34c-0.561,0-1.021-0.12-1.021-0.683v-8.18c0-1.316,1.07-2.389,2.388-2.389
			h5.455c1.314,0,2.044,1.021,2.044,2.333l0.34,8.233C497.391,219.595,496.932,220.055,496.369,220.055z M489.552,209.151
			c-0.938,0-2.021,0.711-2.021,1.647l0.313,8.233c0,0.188,0.154,0.345,0.341,0.345h8.183c0.191,0,0.344-0.154,0.344-0.345v-8.18
			c0-0.941-0.766-1.707-1.704-1.707h-5.453L489.552,209.151L489.552,209.151z"/>
	</g>
	<g>
		<path fill="#FFFFFF" d="M495.12,215.739l-5.539-0.154c-0.563,0-1.052-0.077-1.052-0.641l0.342-4.115
			c0-0.562,0.117-0.996,0.68-0.996l5.455,0.267c0.562,0,1.023,0.19,1.023,0.757v4.088
			C496.03,215.506,495.683,215.739,495.12,215.739z M489.552,210.514c-0.188,0-0.341,0.151-0.341,0.342v4.089
			c0,0.188,0.15,0.342,0.341,0.342h5.453c0.186,0,0.34-0.152,0.34-0.342v-4.089c0-0.188-0.154-0.342-0.34-0.342H489.552z"/>
	</g>
	<g>
		<path fill="#FFFFFF" d="M495.111,216.989h-2.049c-0.291,0.348-0.44,0.004-0.44-0.185c0-0.19,0.15-0.153,0.338-0.153h2.048
			c0.185,0,0.341,0.153,0.341,0.338C495.348,217.177,495.19,217.335,495.111,216.989z"/>
	</g>
	<g>
		<path fill="#FFFFFF" d="M500.448,224.545l-15.363,0.056c-0.189,0-0.233-0.145-0.233-0.334l-0.143-1.145
			c0-0.09,0.415-0.277,0.479-0.336l1.396-1.948c0.062-0.063,0.154-0.101,0.241-0.101l11.926,0.358c0.617,0.3,0.282,0.26,0.349,0.327
			l1.366,1.363c0.134,0.244,0.134,0.244,0.134,0.336v1.097C500.597,224.399,500.634,224.545,500.448,224.545z M485.119,224.146
			h15.001v-0.884l-1.851-1.843h-11.307l-1.846,1.843L485.119,224.146L485.119,224.146z"/>
	</g>
	<g>
		<path fill="#FFFFFF" d="M500.463,223.465l-15.429-0.446c-0.19,0-0.326,0.291-0.326,0.105c0-0.19,0.295-0.338,0.479-0.338h15.276
			c-1.168,0-0.365,0.334-0.015,0.338C500.639,223.124,500.646,223.465,500.463,223.465z"/>
	</g>
	<g>
		<path fill="#FFFFFF" d="M499.094,221.42h-0.68v-0.271l0.337-0.056c0.56,0,1.37-0.817,1.37-1.379c0-0.563-0.458-1.021-1.026-1.021
			l-2.043-0.289v-0.312l2.355,0.145c0.212,0.01,1.043,0.361,1.043,1.303C500.448,220.474,500.036,221.42,499.094,221.42z"/>
	</g>
	<g>
		<g>
			<g>
				<g>
					<path fill="#FFFFFF" d="M265.356,249.583c-0.001-0.084-0.082-0.086-0.107-0.056c0.32-0.769,1.13-1.104,1.518-1.84
						c0.296-0.56,0.451-1.098,0.934-1.567c0.096-0.098,0.012-0.139,0.027-0.35c0.008-0.129,0.317,0.029,0.373-0.055
						c0.05-0.073,0.145-0.292,0.319-0.479c0.965-1.033,1.485-2.445,2.824-2.981c0.144-0.586,0.623-0.985,1.066-1.066
						c0.397-0.616,1.022-1.562,2.237-1.276c0.266,0.228,0.08,0.228,0.347,0.452c-0.134,0.241-0.265,0.334-0.613,0.292
						c0.122,0.748-0.46,0.876-0.852,1.174c-0.661,0.502-1.271,1.033-2.026,2.022c-0.322,0.426-0.88,0.651-1.092,1.094
						c-0.225,0.472-0.448,1.206-1.119,1.277c-0.677,0.971-0.772,2.364-1.705,3.146c-0.167,0.142-0.478,0.145-0.612,0.296
						c-0.631,0.691-0.836,1.605-1.572,2.05c-0.701,1.813-2.733,3.014-3.624,4.742c-0.507-0.281-0.882-0.771-1.172-1.229
						c0.827-0.534,1.315-1.521,1.785-2.104c0.258-0.317,0.819-0.31,1.012-0.692c0.252-0.502,0.759-0.979,1.065-1.545
						C264.644,250.384,264.717,249.79,265.356,249.583z"/>
				</g>
			</g>
		</g>
		<g>
			<g>
				<g>
					<path fill="#FFFFFF" d="M269.347,250.296c-0.083,0.001-0.085,0.082-0.054,0.104c-0.769-0.318-1.104-1.132-1.838-1.52
						c-0.56-0.295-1.098-0.45-1.572-0.937c-0.094-0.096-0.136-0.01-0.347-0.023c-0.127-0.009,0.031-0.316-0.053-0.372
						c-0.073-0.051-0.292-0.146-0.479-0.32c-1.037-0.966-2.449-1.483-2.983-2.823c-0.587-0.145-0.985-0.62-1.066-1.063
						c-0.618-0.396-1.563-1.024-1.278-2.239c0.226-0.267,0.227-0.079,0.453-0.345c0.242,0.133,0.334,0.263,0.292,0.612
						c0.748-0.124,0.876,0.458,1.173,0.852c0.5,0.661,1.034,1.272,2.024,2.025c0.425,0.321,0.65,0.879,1.093,1.092
						c0.468,0.225,1.205,0.449,1.277,1.121c0.97,0.676,2.364,0.771,3.144,1.704c0.141,0.166,0.144,0.478,0.293,0.608
						c0.696,0.632,1.609,0.836,2.052,1.571c1.816,0.701,3.013,2.734,4.742,3.622c-0.28,0.509-0.77,0.883-1.226,1.174
						c-0.533-0.827-1.524-1.312-2.104-1.785c-0.317-0.258-0.306-0.815-0.693-1.01c-0.501-0.255-0.981-0.76-1.544-1.067
						C270.149,251.007,269.555,250.934,269.347,250.296z"/>
				</g>
			</g>
		</g>
		<g>
			<g>
				<g>
					<path fill="#FFFFFF" d="M384.856,249.802c-0.002-0.083-0.084-0.085-0.105-0.053c0.319-0.771,1.13-1.105,1.519-1.84
						c0.298-0.563,0.45-1.102,0.937-1.57c0.094-0.095,0.011-0.136,0.024-0.35c0.011-0.129,0.314,0.029,0.371-0.054
						c0.054-0.074,0.146-0.293,0.319-0.479c0.965-1.036,1.484-2.447,2.824-2.983c0.144-0.585,0.621-0.985,1.064-1.062
						c0.396-0.618,1.021-1.563,2.235-1.279c0.269,0.227,0.081,0.227,0.349,0.452c-0.135,0.242-0.265,0.335-0.611,0.294
						c0.123,0.747-0.459,0.874-0.854,1.172c-0.661,0.499-1.271,1.033-2.022,2.025c-0.322,0.424-0.883,0.647-1.094,1.092
						c-0.226,0.468-0.447,1.206-1.117,1.276c-0.68,0.973-0.771,2.364-1.708,3.146c-0.166,0.142-0.478,0.144-0.609,0.295
						c-0.632,0.694-0.837,1.609-1.571,2.052c-0.696,1.814-2.729,3.013-3.622,4.741c-0.507-0.279-0.883-0.771-1.173-1.227
						c0.827-0.532,1.313-1.524,1.783-2.104c0.257-0.316,0.816-0.306,1.012-0.691c0.257-0.502,0.761-0.979,1.067-1.547
						C384.144,250.603,384.217,250.008,384.856,249.802z"/>
				</g>
			</g>
		</g>
		<g>
			<g>
				<g>
					<path fill="#FFFFFF" d="M388.846,250.514c-0.082,0.002-0.085,0.08-0.053,0.106c-0.771-0.321-1.104-1.135-1.839-1.521
						c-0.562-0.296-1.099-0.449-1.571-0.93c-0.095-0.103-0.136-0.018-0.347-0.028c-0.129-0.01,0.028-0.318-0.054-0.373
						c-0.073-0.051-0.293-0.145-0.479-0.32c-1.036-0.964-2.45-1.482-2.985-2.82c-0.587-0.146-0.983-0.623-1.062-1.066
						c-0.618-0.396-1.563-1.021-1.28-2.237c0.229-0.268,0.229-0.082,0.453-0.347c0.242,0.133,0.335,0.263,0.292,0.612
						c0.747-0.123,0.876,0.46,1.173,0.851c0.5,0.662,1.033,1.272,2.024,2.026c0.425,0.323,0.649,0.881,1.094,1.092
						c0.468,0.224,1.205,0.449,1.275,1.121c0.973,0.674,2.363,0.77,3.146,1.703c0.139,0.17,0.146,0.479,0.293,0.612
						c0.694,0.632,1.607,0.836,2.053,1.57c1.814,0.698,3.014,2.731,4.741,3.621c-0.282,0.508-0.771,0.883-1.228,1.172
						c-0.532-0.822-1.524-1.312-2.104-1.779c-0.316-0.262-0.305-0.819-0.691-1.016c-0.5-0.252-0.979-0.76-1.547-1.064
						C389.647,251.226,389.055,251.153,388.846,250.514z"/>
				</g>
			</g>
		</g>
		<g>
			<g>
				<path fill="#FFFFFF" d="M297.814,254.353c0-1.121-0.04-3.138-0.116-6.05c-0.155-5.785-0.115-9.777,0.349-13.723
					c0.039-0.492,0.427-0.808,0.893-0.764c0.428,0.046,0.7,0.493,0.661,1.032c-0.466,3.813-0.504,7.667-0.35,13.36
					c0.078,2.825,0.116,4.887,0.116,6.143v3.54c-0.038,0.811-0.038,1.438-0.077,1.928c-0.039,0.271-0.078,0.449-0.116,0.633
					c-0.077,0.4-0.194,0.672-0.543,0.852c-0.311,0.177-0.661,0.045-0.893-0.136c-0.039-0.044-0.079-0.135-0.117-0.179
					c-0.038-0.048-0.116-0.182-0.154-0.357c-0.04-0.137-0.079-0.315-0.155-0.539l-0.466-1.614l-0.971-3.588
					c-0.583-1.928-1.166-4.438-1.786-7.532c-0.312-1.563-0.583-2.914-0.817-3.988c-0.154-0.764-0.737-2.557-0.737-2.557
					c-0.039,1.304-0.077,2.285-0.077,2.959c0,1.211-0.04,3.143-0.117,5.784c-0.117,2.688-0.155,4.707-0.155,6.009
					c0,1.346,0.078,3.185,0.272,5.517c0.039,0.538-0.233,0.982-0.662,1.031c-0.465,0.045-0.853-0.271-0.892-0.765
					c-0.194-1.521-0.272-3.316-0.272-5.38s0.04-4.35,0.155-6.86c0.078-2.465,0.116-4.26,0.116-5.335
					c0-0.673,0.039-1.704,0.117-3.094c0.039-1.299,0.077-2.285,0.077-2.958v-2.062c0-0.044,0-0.044,0-0.094
					c0,0-0.038-0.134-0.077-0.312c-0.039-0.492-0.039-0.941,0.427-1.255c0.195-0.137,0.428-0.137,0.661-0.046
					c0.427,0.135,0.662,0.495,0.776,1.075c0.039,0.092,0.039,0.226,0.039,0.355c0,0.047,0.04,0.047,0.04,0.092
					s0.038,0.227,0.153,0.581c0.08,0.315,0.233,0.768,0.39,1.347c0.271,0.81,0.426,1.479,0.543,1.976
					c0.116,0.537,2.212,11.208,3.3,14.976l-0.35-1.3c0.233,0.852,0.816,2.24,0.816,2.02L297.814,254.353L297.814,254.353
					L297.814,254.353z"/>
				<path fill="#FFFFFF" d="M309.269,242.652c0.272,7.893,0.079,12.062-0.658,14.977c-0.428,2.018-1.127,3.315-2.021,3.989
					c-1.242,0.896-2.407,0.58-3.3-0.631c-0.621-0.849-1.163-2.237-1.63-4.124c-0.972-4.077-2.643-14.795-0.039-20.712
					c0.583-1.301,1.825-2.557,3.067-2.871c2.02-0.49,3.34,0.986,4,3.141C309.114,237.809,309.309,239.558,309.269,242.652z
					 M307.716,240.5c-0.038-1.393-0.232-2.557-0.504-3.496c-0.466-1.479-1.126-2.242-2.213-1.928
					c-0.738,0.133-1.63,1.026-1.98,1.883c-2.329,5.2-0.813,15.512,0.117,19.411c0.427,1.657,0.854,2.778,1.32,3.448
					c0.466,0.539,0.775,0.633,1.282,0.271c1.126-0.854,1.824-3.899,2.019-8.339C307.872,249.556,307.756,240.902,307.716,240.5z"/>
				<path fill="#FFFFFF" d="M320.026,235.029c0,0.494-0.311,0.941-0.736,0.941c-0.739,0.047-1.825,0.047-3.225,0
					c-0.543-0.045-0.775,0.313-0.736,0.896c0.077,0.984,0.115,2.018,0.077,3.36c-0.038,0.94-0.038,1.523-0.038,1.794
					c0,1.211-0.039,3.097-0.116,5.738c-0.195,5.243-0.195,9.234,0.23,12.465c0.039,0.49-0.23,0.985-0.659,1.029
					c-0.428,0.047-0.854-0.271-0.894-0.762c-0.426-3.362-0.426-7.487-0.231-12.867c0.076-2.646,0.115-4.529,0.115-5.604
					c0-0.401,0-1.029,0.038-1.972c0-0.81,0.04-1.391,0.04-1.928c0,1.209-0.232-0.897-0.232-1.35c0-0.583-0.271-0.896-0.777-0.896
					c-0.776,0-1.476,0-2.058,0.089c-0.467,0.047-0.815-0.313-0.854-0.851c-0.039-0.494,0.272-0.896,0.7-0.943
					c1.049-0.089,2.484-0.089,4.35-0.043c1.979,0.09,3.377,0.09,4.191,0.043C319.638,234.178,320.026,234.537,320.026,235.029z"/>
				<path fill="#FFFFFF" d="M334.976,240.636c0.66-3.407-0.506-5.022-2.213-5.022c-1.824-0.044-3.611,1.615-3.922,4.308
					c-0.311,2.556,0.699,4.079,3.301,6.812c1.438,1.571,1.826,1.977,2.99,3.586c1.164,1.616,1.709,3.318,1.902,5.337
					c0.427,4.438-1.709,7.22-4.504,6.904c-2.759-0.312-4.934-3.408-4.934-8.206c0-0.491,0.352-0.896,0.777-0.896
					s0.773,0.402,0.773,0.896c0,3.989,1.709,6.231,3.535,6.41c1.707,0.182,3.105-1.523,2.795-4.932
					c-0.153-1.656-0.621-3.047-1.593-4.438c-0.969-1.391-1.396-1.884-2.796-3.364c-1.396-1.435-1.863-1.972-2.756-3.449
					c-0.935-1.48-1.243-3.095-1.048-4.935c0.427-3.541,2.952-5.872,5.475-5.828c2.796,0.046,4.582,2.825,3.767,7.176
					c-0.118,0.492-0.506,0.762-0.933,0.672C335.17,241.577,334.937,241.128,334.976,240.636z"/>
				<path fill="#FFFFFF" d="M347.753,235.029c0,0.494-0.312,0.941-0.738,0.941c-0.738,0.047-1.824,0.047-3.223,0
					c-0.543-0.045-0.776,0.313-0.737,0.896c0.077,0.984,0.116,2.018,0.077,3.36c-0.04,0.94-0.04,1.523-0.04,1.794
					c0,1.211-0.038,3.097-0.116,5.738c-0.192,5.243-0.192,9.234,0.232,12.465c0.04,0.49-0.232,0.985-0.659,1.029
					c-0.428,0.047-0.854-0.271-0.894-0.762c-0.427-3.362-0.427-7.487-0.232-12.867c0.078-2.646,0.116-4.529,0.116-5.604
					c0-0.401,0-1.029,0.038-1.972c0-0.81,0.039-1.391,0.039-1.928c0,1.209-0.23-0.897-0.23-1.35c0-0.583-0.271-0.896-0.777-0.896
					c-0.775,0-1.477,0-2.058,0.089c-0.466,0.047-0.815-0.313-0.854-0.851c-0.039-0.494,0.271-0.896,0.698-0.943
					c1.047-0.089,2.485-0.089,4.351-0.043c1.979,0.09,3.379,0.09,4.19,0.043C347.364,234.178,347.753,234.537,347.753,235.029z"/>
				<path fill="#FFFFFF" d="M357.422,242.652c0.271,7.893,0.076,12.062-0.661,14.977c-0.428,2.018-1.127,3.315-2.021,3.989
					c-1.241,0.896-2.405,0.58-3.3-0.631c-0.62-0.849-1.164-2.237-1.631-4.124c-0.971-4.077-2.64-14.795-0.039-20.712
					c0.582-1.301,1.825-2.557,3.067-2.871c2.021-0.49,3.34,0.986,4,3.141C357.266,237.809,357.46,239.558,357.422,242.652z
					 M355.868,240.5c-0.039-1.393-0.231-2.557-0.506-3.496c-0.466-1.479-1.125-2.242-2.214-1.928
					c-0.737,0.133-1.632,1.026-1.979,1.883c-2.329,5.2-0.814,15.512,0.117,19.411c0.426,1.657,0.854,2.778,1.319,3.448
					c0.466,0.539,0.774,0.633,1.279,0.271c1.128-0.854,1.825-3.899,2.021-8.339C356.022,249.556,355.907,240.902,355.868,240.5z"/>
				<path fill="#FFFFFF" d="M361.032,247.897c-0.076,0.089-0.154,0.134-0.271,0.134c-0.154,0.049-0.271,0.271-0.231,0.811
					c0.038,0.853,0.116,1.883,0.19,3.095c0.196,3.407,0.353,6.1,0.353,8.563c0,0.494-0.353,0.896-0.775,0.896
					c-0.428,0-0.777-0.4-0.777-0.896c0-1.748-0.075-4.262-0.271-7.441c-0.194-3.184-0.312-5.244-0.352-6.231
					c-0.039-0.673,0-1.612,0.041-2.823c0.154-3.406,0.312-5.827-0.153-7.804c-0.118-0.399-0.354-0.627-0.429-1.028
					c-0.041-0.228-0.041-0.448,0.075-0.673c0.117-0.228,0.272-0.357,0.468-0.403c1.901-0.581,3.884,0.089,5.125,1.615
					c1.243,1.522,2.097,3.496,1.941,5.689c-0.078,1.123-0.391,2.109-0.973,3.049c-0.468,0.854-1.397,1.704-1.824,2.021
					c-0.194,0.18-0.622,0.449-1.204,0.853L361.032,247.897z M362.274,244.983c0.509-0.356,0.738-0.583,1.05-0.984
					c0.155-0.182,0.312-0.358,0.429-0.539c0.428-0.763,0.662-1.612,0.662-2.558c0-1.837-0.778-3.358-2.061-4.438
					c-0.39-0.271-0.774-0.494-1.168-0.628c-0.539-0.18-0.812,0.268-0.732,0.938c0.35,2.021,0.152,4.125,0.038,7.312
					c0,0.4-0.038,0.761-0.038,1.075c0,0.63,0.113,0.983,0.312,0.853c0.076-0.046,0.193-0.137,0.312-0.223
					c0.312-0.185,0.543-0.316,0.66-0.405L362.274,244.983z"/>
			</g>
		</g>
	</g>
</g>
<text transform="matrix(1 0 0 1 510.9092 224.7734)" fill="#FFFFFF" font-family="'Myriad-Roman'" font-size="8">1989</text>
<g>
	<path fill="#FFFFFF" d="M217.71,73.074c-4.017,23.895-5.974,44.289-5.974,61.077c0,1.03,0,2.472,0.103,4.429
		c0,1.957,0.103,3.09,0.103,3.502c0,1.133-0.412,2.163-1.236,3.09c-0.824,0.824-1.854,1.236-2.884,1.236
		c-3.193,0-4.738-2.884-4.738-8.446c0-7.931,0.618-19.363,2.06-34.401c-8.446,2.06-17.715,3.605-28.015,4.429
		c-0.618,8.137-1.236,18.951-1.854,32.547c-0.103,1.442-0.515,2.781-1.339,3.914c-0.927,1.03-1.957,1.648-3.09,1.648
		c-1.133,0-2.06-0.515-2.781-1.545c-0.824-1.03-1.133-2.06-1.133-3.296c0-8.24,0.515-19.26,1.751-33.062
		c-0.412,0-1.133,0.103-1.957,0.103c-1.03,0-1.751,0-2.163,0c-4.738,0-7.003-1.442-7.003-4.532c0-1.03,0.309-1.957,1.03-2.884
		c0.618-0.824,1.442-1.339,2.472-1.339c0.309,0,1.545,0.103,3.708,0.206c2.163,0.206,3.708,0.309,4.532,0.309
		c1.545-14.625,4.12-26.882,7.622-36.77c0.824-2.678,1.442-4.223,1.751-4.738c0.927-1.751,2.163-2.678,3.811-2.678
		c2.678,0,4.12,1.442,4.12,4.223c0,0.721-0.927,3.811-2.678,9.167c-0.618,1.545-1.442,4.635-2.472,9.373
		c-1.648,6.592-2.884,13.596-3.708,20.909c10.918-0.618,20.394-2.266,28.427-5.15c1.03-8.652,2.06-15.45,3.09-20.394
		c0.206-1.648,0.721-4.017,1.442-7.107c0.515-2.163,1.751-3.296,3.708-3.296c1.03,0,2.06,0.515,2.884,1.339
		c0.824,0.927,1.236,1.957,1.236,2.987L217.71,73.074z"/>
	<path fill="#FFFFFF" d="M265.913,118.496c-1.442,4.326-2.06,8.446-2.06,12.566c0,1.236,0.206,3.09,0.721,5.458
		c0.412,2.472,0.721,3.708,0.721,4.017c0,1.03-0.515,2.06-1.339,2.884c-0.927,0.618-1.957,1.03-2.987,1.03
		c-2.987,0-4.738-4.017-5.253-11.844c-5.768,5.768-10.918,8.651-15.553,8.651c-2.987,0-5.562-1.236-7.725-3.811
		c-2.266-2.472-3.296-5.253-3.296-8.446c0-5.974,3.502-12.36,10.608-18.952c6.798-6.386,12.978-9.682,18.643-9.682
		c1.339,0,2.678,0.618,4.017,1.648c1.236,1.03,1.957,2.266,1.957,3.502c0,0.515-0.103,1.03-0.206,1.442
		c0.618,1.854,1.03,3.914,1.03,6.283c0.824,1.03,1.339,2.06,1.339,2.987C266.531,116.642,266.325,117.363,265.913,118.496z
		 M255.305,109.432c-1.957,0-5.356,2.369-10.094,6.9c-5.253,5.047-7.828,9.167-7.828,12.463c0,2.575,1.03,3.811,3.193,3.811
		c3.09,0,6.695-2.266,10.608-7.004c3.914-4.738,5.974-8.858,5.974-12.36C257.159,110.771,256.541,109.432,255.305,109.432z"/>
	<path fill="#FFFFFF" d="M312.16,108.299c-2.06,1.236-3.914,1.751-5.562,1.751c-0.103,0-0.721-0.206-1.957-0.618
		c-8.343,4.12-13.493,12.462-15.347,25.028c-0.515,3.296-0.927,5.459-1.236,6.489c-0.618,1.854-1.648,2.781-2.884,2.781
		s-2.472-0.721-3.502-1.957c-1.03-1.339-1.442-2.781-1.442-4.532c0-0.309,0.206-1.648,0.824-4.12
		c0.515-2.266,0.824-4.738,0.824-7.519c0-2.472-0.309-5.768-0.721-9.785c-1.854-2.575-2.781-6.18-2.781-10.712
		c0-1.03,0.309-2.06,0.927-3.09c0.515-0.824,1.236-1.339,2.06-1.339c1.957,0,3.502,1.133,4.635,3.193
		c0.824,1.854,1.545,4.944,2.163,9.27c6.283-9.476,13.493-14.213,21.526-14.213c1.339,0,2.575,0.618,3.811,1.854
		c1.133,1.236,1.751,2.575,1.751,4.017C315.25,106.033,314.22,107.269,312.16,108.299z"/>
	<path fill="#FFFFFF" d="M347.488,105.518c-0.824,0.824-1.751,1.133-2.781,1.133c-0.515,0-1.441,0-2.678-0.206
		c-1.236,0-2.163-0.103-2.781-0.103c-2.678,0-4.017,1.03-4.017,2.987c0,1.236,1.236,5.047,3.811,11.433
		c2.473,6.489,3.812,11.33,3.812,14.419c0,2.987-1.236,5.356-3.605,7.313c-2.678,1.957-6.282,2.987-10.814,2.987
		c-7.416,0-11.021-1.545-11.021-4.429c0-1.133,0.309-2.266,1.133-3.296c0.618-1.03,1.442-1.648,2.369-1.648
		c0.206,0,1.339,0.206,3.398,0.412c2.061,0.309,3.812,0.412,5.047,0.412c3.399,0,5.15-1.133,5.15-3.605
		c0-1.442-1.339-5.356-3.812-11.536c-2.472-6.18-3.707-10.814-3.707-13.699c0-4.738,2.368-8.034,7.209-9.785
		c1.03-1.648,2.987-2.575,6.077-2.575c4.738,0,7.312,1.545,7.725,4.635c0.412,0.824,0.618,1.648,0.618,2.369
		C348.621,103.973,348.209,104.9,347.488,105.518z"/>
	<path fill="#FFFFFF" d="M393.219,143.936c-4.325,0-6.592-4.841-7.004-14.729l-0.515-12.463
		c-9.27,6.901-15.243,12.771-17.921,17.613c-0.722,1.647-1.442,3.296-2.267,4.841c-1.235,2.266-2.163,3.398-2.986,3.398
		c-1.545,0-2.884-0.618-4.018-1.854c-1.029-1.339-1.545-2.781-1.545-4.223c0-0.206,0-1.133,0-2.781
		c-0.103-1.545-0.103-2.678-0.103-3.296c0-9.888,0.824-19.569,2.678-29.045l5.974-32.856c0.618-3.398,1.751-5.149,3.399-5.149
		c1.339,0,2.472,0.721,3.398,2.163c1.03,1.442,1.545,2.884,1.545,4.326c0,0.515-0.309,2.163-0.824,5.047
		c-0.617,2.987-1.545,7.416-2.574,13.389l-3.09,16.171c-0.516,2.678-1.339,8.754-2.473,18.23c2.267-2.781,6.181-6.386,11.948-10.815
		c5.974-4.738,9.99-7.107,11.845-7.107c1.545,0,2.78,0.721,3.811,1.957c1.03,1.442,1.648,2.987,1.648,4.635
		c0,0.309-0.206,1.751-0.412,4.326c-0.206,2.575-0.206,4.223-0.206,4.841c0,4.326,0.309,8.857,0.927,13.699
		c0.206,1.854,0.515,4.017,0.824,6.695C395.073,142.906,394.455,143.936,393.219,143.936z"/>
	<path fill="#FFFFFF" d="M419.175,114.17c-2.061,8.034-3.193,15.038-3.399,21.217c1.339,1.236,2.061,2.781,2.061,4.635
		c0,0.618-0.412,1.133-1.03,1.751s-1.236,0.927-1.854,0.927c-4.738,0-7.004-4.223-7.004-12.668c0-4.017,1.339-11.845,4.12-23.483
		c-0.206-1.236-0.31-2.06-0.31-2.472c0-1.339,0.721-2.472,2.369-3.296c4.532,0,6.798,2.163,6.798,6.489L419.175,114.17z
		 M422.265,73.589c-0.31,0-0.927-0.103-1.751-0.412c-2.987-1.03-4.429-3.708-4.429-8.034c0-2.163,1.441-3.708,4.325-4.738
		c3.502,0.412,5.253,2.678,5.253,7.004C425.663,71.529,424.53,73.589,422.265,73.589z"/>
	<path fill="#FFFFFF" d="M468.305,107.372c-0.824,1.03-1.751,1.545-2.679,1.545c-1.441,0-2.78-0.412-3.811-1.442
		c-0.721,0-2.472,0-5.355-0.103c-2.884,0-4.738-0.103-5.769-0.103c-1.854,8.034-2.986,12.978-3.398,14.935
		c-1.236,5.768-1.854,11.021-2.06,15.552c1.029,0.824,1.545,1.957,1.545,3.605c0,1.03-0.516,1.957-1.442,2.884
		c-1.03,0.824-1.957,1.236-2.987,1.236c-3.398,0-5.047-2.884-5.047-8.446c0-3.09,0.618-8.034,1.957-14.729l3.09-14.832
		c-3.192,0-4.737-1.442-4.737-4.429c0-1.854,0.618-3.09,1.854-3.708c0.824-0.412,2.369-0.721,4.841-0.721
		c2.679-10.917,4.944-19.363,6.798-25.543c0.618-2.163,1.854-3.296,3.708-3.296c2.678,0,4.12,1.545,4.429,4.635
		c-0.618,2.163-1.441,4.635-2.369,7.519c-1.235,4.223-2.574,9.682-4.017,16.479c0.722,0,3.296,0.103,7.622,0.206
		c5.974,0.309,8.961,2.06,8.961,5.356C469.438,105.209,469.025,106.342,468.305,107.372z"/>
</g>
<g>
	<path fill="#FFFFFF" d="M209.536,147.28c-5.562,1.235-10.711,3.502-15.552,6.694c-5.974,3.914-8.961,7.828-8.961,11.947
		c0,2.679,3.605,5.871,10.918,9.373c4.532,2.266,7.828,4.326,9.785,6.18c3.09,2.987,4.635,6.592,4.635,10.814
		c0,6.077-3.09,11.228-9.064,15.347c-5.458,3.812-11.227,5.769-17.2,5.769c-6.283,0-9.373-1.751-9.373-5.253
		c0-1.236,0.412-2.267,1.236-3.09c0.721-1.03,1.648-1.545,2.884-1.545c0.618,0,1.545,0.205,2.884,0.515
		c1.133,0.309,2.06,0.412,2.678,0.412c3.604,0,7.312-1.03,11.124-3.193c4.223-2.472,6.386-5.562,6.386-9.063
		c0-2.884-3.811-6.18-11.227-9.682c-4.635-2.06-7.828-4.017-9.476-5.665c-3.09-2.884-4.635-6.488-4.635-11.021
		c0-5.459,2.678-10.608,8.24-15.449c4.017-3.708,9.064-6.695,15.244-9.167c1.339-2.266,3.605-3.399,6.798-3.399
		c1.442,0,2.884,0.516,4.12,1.34c1.03,0.927,1.648,2.162,1.648,3.811C212.625,145.323,211.596,146.765,209.536,147.28z"/>
	<path fill="#FFFFFF" d="M258.975,188.582c-1.442,4.325-2.06,8.445-2.06,12.565c0,1.235,0.206,3.09,0.721,5.459
		c0.412,2.472,0.721,3.707,0.721,4.017c0,1.03-0.515,2.06-1.339,2.884c-0.927,0.618-1.957,1.03-2.987,1.03
		c-2.987,0-4.738-4.018-5.252-11.845c-5.768,5.768-10.918,8.651-15.553,8.651c-2.987,0-5.562-1.235-7.725-3.811
		c-2.266-2.472-3.296-5.253-3.296-8.446c0-5.974,3.502-12.359,10.608-18.951c6.798-6.386,12.978-9.682,18.643-9.682
		c1.339,0,2.678,0.618,4.017,1.648c1.236,1.029,1.957,2.266,1.957,3.501c0,0.516-0.103,1.03-0.206,1.442
		c0.618,1.854,1.03,3.914,1.03,6.283c0.824,1.029,1.339,2.06,1.339,2.986C259.592,186.728,259.386,187.448,258.975,188.582z
		 M248.366,179.518c-1.957,0-5.356,2.369-10.094,6.901c-5.253,5.047-7.828,9.166-7.828,12.462c0,2.575,1.03,3.812,3.193,3.812
		c3.09,0,6.695-2.267,10.608-7.004c3.914-4.738,5.974-8.857,5.974-12.359C250.22,180.856,249.602,179.518,248.366,179.518z"/>
	<path fill="#FFFFFF" d="M309.444,181.269c-3.09,2.678-7.416,6.283-12.978,10.609c1.957,3.296,3.708,6.282,5.15,9.166
		c1.854,3.914,2.884,6.283,2.884,7.107c0,1.029-0.515,2.06-1.442,2.884c-0.927,0.824-1.854,1.235-2.781,1.235
		c-1.957,0-3.398-0.927-4.223-2.678c-1.854-4.12-4.017-8.137-6.386-12.257c-5.562,4.532-10.197,8.652-13.905,12.566
		c-1.236,1.235-2.472,1.854-3.501,1.854c-2.884,0-4.326-1.545-4.326-4.429c0-1.648,1.648-4.12,5.047-7.312
		c2.575-2.473,6.489-5.871,11.845-10.197c-0.618-0.927-1.545-2.06-2.575-3.398c-0.824-0.206-1.442-0.618-1.957-1.236
		c-1.03-0.824-2.266-2.472-3.914-4.943c-1.957-2.781-2.884-4.636-2.884-5.459c0-3.193,1.545-4.841,4.841-4.841
		c1.236,0,3.193,1.545,5.768,4.635c2.575,3.09,5.047,6.386,7.519,9.888c2.781-2.267,6.695-5.253,11.742-9.167
		c1.854-1.339,2.987-2.06,3.604-2.06c1.133,0,2.163,0.412,3.09,1.235c0.927,0.824,1.442,1.751,1.442,2.884
		C311.504,178.797,310.783,180.136,309.444,181.269z"/>
	<path fill="#FFFFFF" d="M350.438,213.404c-7.828,0-13.596-3.502-17.303-10.609h-3.09c-2.678,0-5.253-0.515-7.931-1.647
		c-3.501-1.442-5.149-3.296-5.149-5.562c0-2.884,1.339-4.325,4.017-4.325c0.618,0,1.648,0.515,3.09,1.545
		c1.442,1.029,2.781,1.545,4.223,1.545h2.369c-0.309-1.751-0.412-3.193-0.412-4.223c0-4.944,1.236-9.579,3.708-13.905
		c2.884-5.047,6.489-7.621,10.918-7.621c2.575,0,5.047,1.235,7.519,3.708c2.473,2.472,3.708,5.252,3.708,8.137
		c0,7.621-5.149,14.213-15.45,19.775c2.473,2.986,5.15,4.429,8.24,4.429c0.824,0,2.163-0.104,3.914-0.31s3.09-0.412,3.914-0.412
		c1.029,0,2.06,0.516,2.884,1.34c0.823,1.029,1.235,2.06,1.235,3.09C360.84,211.653,357.338,213.404,350.438,213.404z
		 M346.936,178.488c-0.824-0.618-1.648-1.03-2.472-1.03c-1.854,0-3.296,1.545-4.325,4.635c-1.031,2.575-1.443,5.253-1.443,8.034
		v1.854c6.181-4.017,9.271-7.725,9.271-11.124C347.966,180.033,347.554,179.312,346.936,178.488z"/>
	<path fill="#FFFFFF" d="M404.615,209.593c-0.207,1.854-1.03,2.884-2.473,2.884c-1.545,0-2.781-0.617-3.811-1.854
		c-1.03-1.339-1.545-2.781-1.545-4.429c0-0.104,0.206-2.061,0.617-5.871l1.545-13.184c-8.548,6.489-14.521,12.565-18.023,18.333
		c-0.721,1.236-1.34,2.575-1.957,3.812c-1.03,1.647-2.061,2.575-3.09,2.575c-4.326,0-6.387-6.077-6.387-18.334
		c0-8.033,1.134-16.171,3.399-24.514c0.412-1.441,1.133-2.266,2.369-2.266c1.545,0,2.884,0.618,3.913,1.751
		c1.031,1.339,1.545,2.781,1.545,4.429c-0.514,2.061-1.029,4.326-1.545,6.798c-1.029,5.459-1.545,10.712-1.545,15.861
		c7.313-8.857,15.141-15.655,23.484-20.29c1.441,0.104,2.78,0.618,4.017,1.545c1.235,1.03,1.956,2.266,1.956,3.811
		C407.086,185.389,406.263,195.07,404.615,209.593z"/>
	<path fill="#FFFFFF" d="M454.362,188.582c-1.442,4.325-2.06,8.445-2.06,12.565c0,1.235,0.206,3.09,0.721,5.459
		c0.412,2.472,0.721,3.707,0.721,4.017c0,1.03-0.515,2.06-1.338,2.884c-0.928,0.618-1.957,1.03-2.987,1.03
		c-2.987,0-4.738-4.018-5.253-11.845c-5.768,5.768-10.918,8.651-15.553,8.651c-2.986,0-5.562-1.235-7.725-3.811
		c-2.266-2.472-3.296-5.253-3.296-8.446c0-5.974,3.502-12.359,10.608-18.951c6.798-6.386,12.978-9.682,18.643-9.682
		c1.339,0,2.678,0.618,4.018,1.648c1.235,1.029,1.956,2.266,1.956,3.501c0,0.516-0.103,1.03-0.206,1.442
		c0.618,1.854,1.03,3.914,1.03,6.283c0.823,1.029,1.339,2.06,1.339,2.986C454.98,186.728,454.774,187.448,454.362,188.582z
		 M443.754,179.518c-1.957,0-5.355,2.369-10.094,6.901c-5.253,5.047-7.828,9.166-7.828,12.462c0,2.575,1.03,3.812,3.193,3.812
		c3.09,0,6.695-2.267,10.608-7.004c3.914-4.738,5.974-8.857,5.974-12.359C445.607,180.856,444.99,179.518,443.754,179.518z"/>
</g>
</svg>
