<?xml version="1.0" encoding="utf-8"?>
<!-- Generator: Adobe Illustrator 16.0.0, SVG Export Plug-In . SVG Version: 6.00 Build 0)  -->
<!DOCTYPE svg PUBLIC "-//W3C//DTD SVG 1.1//EN" "http://www.w3.org/Graphics/SVG/1.1/DTD/svg11.dtd">
<svg version="1.1" id="Layer_1" xmlns="http://www.w3.org/2000/svg" xmlns:xlink="http://www.w3.org/1999/xlink" x="0px" y="0px"
	 width="63.682px" height="66.727px" viewBox="0 0 63.682 66.727" enable-background="new 0 0 63.682 66.727" xml:space="preserve">
<path fill="#F5FE07" d="M32.796,6.511C16.75,4.268,8.312,28.306,7.964,37.806c-0.346,9.498,5.987,23.92,22.521,25.332
	C47.019,64.546,60.74,42.382,59.684,28.66C58.628,14.939,50.385,8.969,32.796,6.511z"/>
<g>
	<g>
		
			<rect x="14.48" y="32.513" transform="matrix(-0.7071 -0.7071 0.7071 -0.7071 31.3955 78.9465)" fill="#231F20" width="35.137" height="0.916"/>
	</g>
</g>
<g>
	<g>
		
			<rect x="32.131" y="15.403" transform="matrix(-0.7039 -0.7103 0.7103 -0.7039 32.1081 79.3267)" fill="#231F20" width="0.916" height="35.136"/>
	</g>
</g>
<text transform="matrix(1 0 0 1 25.6746 47.3635)" fill="#231F20" font-family="'ComicSansMS'" font-size="6">1989</text>
<text transform="matrix(1 0 0 1 18.0911 36.6135)" font-family="'ComicSansMS'" font-size="10">H</text>
<text transform="matrix(1 0 0 1 37.5911 36.5315)" font-family="'ComicSansMS'" font-size="10">S</text>
<text transform="matrix(1 0 0 1 25.675 22.697)" font-family="'ComicSansMS'" font-size="6">0128</text>
</svg>
