<?xml version="1.0" encoding="utf-8"?>
<!-- Generator: Adobe Illustrator 15.1.0, SVG Export Plug-In . SVG Version: 6.00 Build 0)  -->
<!DOCTYPE svg PUBLIC "-//W3C//DTD SVG 1.1//EN" "http://www.w3.org/Graphics/SVG/1.1/DTD/svg11.dtd">
<svg version="1.1" id="Layer_1" xmlns="http://www.w3.org/2000/svg" xmlns:xlink="http://www.w3.org/1999/xlink" x="0px" y="0px"
	 width="125.25px" height="51px" viewBox="0 0 125.25 51" enable-background="new 0 0 125.25 51" xml:space="preserve">
<g>
	<path fill="#F5FE07" d="M57.273,24.891c-3.421-1.09-7.605-1.518-8.878-1.438c-8.313,0.522-19.438,7.188-25.313,10.438
		c-3.651,2.02-12.5,5.813-16-1.188c-2.5-5.375,2.619-9.133,3.807-9.571c1.188-0.437,6.131-2.367,7.506,2.508
		s-3.926,6.677-5.068,5.046s0-3.241,0.938-3.241c0.419-0.06,0.938-0.563,0.188-1c-0.75-0.438-4.682,2.32-2.744,4.695
		s7.063,1.265,8.063-0.422c1-1.688,2.156-8.858-4.469-9.733S3.17,25.86,5.047,32.735s12.167,6.471,18.479,3.533
		c6.313-2.938,20.915-11.097,26.915-10.285c2.221,0.301,3.651,0.578,5.305,1.077C56.553,26.713,57.564,25.016,57.273,24.891z"/>
	<path fill="#F5FE07" d="M67.977,24.891c3.421-1.09,7.605-1.518,8.878-1.438c8.313,0.522,19.438,7.188,25.313,10.438
		c3.651,2.02,12.5,5.813,16-1.188c2.5-5.375-2.62-9.133-3.808-9.571c-1.187-0.437-6.13-2.367-7.505,2.508s3.926,6.677,5.068,5.046
		s0-3.241-0.938-3.241c-0.418-0.06-0.937-0.563-0.187-1c0.75-0.438,4.682,2.32,2.744,4.695s-7.063,1.265-8.063-0.422
		c-1-1.688-2.156-8.858,4.469-9.733s12.131,4.875,10.254,11.75s-12.167,6.471-18.48,3.533S80.809,25.171,74.809,25.983
		c-2.221,0.301-3.651,0.578-5.305,1.077C68.697,26.713,67.686,25.016,67.977,24.891z"/>
	<path fill="#F5FE07" d="M48.104,8.253c-0.428,0.319,0.167,4.398,0.745,5.484c0.578,1.087,3.75,5.59,6.75,6.629
		c3,1.038,4.963,0.952,5.608,0.977s4.02,0.127,4.226,0s7.775-1.241,9.495-4.878c1.72-3.636,2.629-6.364,2.296-8.212
		c-0.958-0.599-2.857-0.065-2.893,0.65s-0.849,8.381-7.499,9.212c-6.649,0.831-11.723-0.592-13.895-3.047
		c-2.172-2.456-1.944-6.332-1.944-6.332S48.845,7.702,48.104,8.253z"/>
	<path fill="#F5FE07" d="M48.104,42.74c-0.428-0.319,0.167-4.398,0.745-5.485s3.75-5.59,6.75-6.628s4.963-0.952,5.608-0.977
		c0.645-0.025,4.02-0.127,4.226,0s7.775,1.241,9.495,4.877s2.629,6.365,2.296,8.213c-0.958,0.598-2.857,0.065-2.893-0.65
		s-0.849-8.381-7.499-9.212s-11.723,0.592-13.895,3.047c-2.172,2.456-1.944,6.332-1.944,6.332S48.845,43.291,48.104,42.74z"/>
	<path fill="#F5FE07" d="M64.121,8.253c-0.478-0.048-2.39-0.652-2.914,0c-0.233,0.819,0.147,9.358,0.187,10.213
		s-0.229,11.479-0.262,12.271s-0.074,11.836,0.551,12.064c0.625,0.228,2.438,0.52,2.438-0.272c0-0.792,0-7.126,0-7.917
		c0-0.791-0.187-12.581,0-13.207C64.308,20.779,64.309,8.272,64.121,8.253z"/>
</g>
</svg>
